<svg xmlns="http://www.w3.org/2000/svg" id="Layer_1" data-name="Layer 1" viewBox="0 0 368.05 79.31"><defs><style>.cls-1{fill:#58595b;}.cls-1,.cls-2{fill-rule:evenodd;}.cls-2{fill:#8c8e91;}</style></defs><title>logo main</title><path class="cls-1" d="M416.6,314.88c-1.34,0-3.62.09-5.23.09a6,6,0,0,1,.83-3.65,2.43,2.43,0,0,1,2.18-1.25h0a2.17,2.17,0,0,1,2,1.39,7.35,7.35,0,0,1,.55,2.92c0,.32-.14.51-.42.51m7.38,1a10.88,10.88,0,0,0-2.37-7.17,8.2,8.2,0,0,0-6.31-2.5,11.37,11.37,0,0,0-11.67,11.76v0c0,6.53,4.68,9.54,10.84,9.54a26,26,0,0,0,9-2.17,30,30,0,0,0-.88-3.8,24.61,24.61,0,0,1-6.54,1.24,4.54,4.54,0,0,1-3.43-1.11,4.34,4.34,0,0,1-1.24-3c4.13,0,8.84,0,10.1-.14.37,0,2.46-2,2.51-2.69m-48.19-1.48c-3.56-1-4.35-1.2-4.35-2.27a1.77,1.77,0,0,1,.83-1.58,3.62,3.62,0,0,1,1.76-.37,3.24,3.24,0,0,1,1.8.51.74.74,0,0,1,.33.51l.7,2.46c1.43-.23,2.92-.42,4.17-.65-.18-2-.41-4.13-.64-6.17a19.13,19.13,0,0,0-5.56-.64,14.69,14.69,0,0,0-6.63,1.34,6.69,6.69,0,0,0-4,5.79c0,2.92,2,5,6.2,6.17,3.15.83,3.71,1.16,3.71,2.31a1.66,1.66,0,0,1-1,1.54,4.73,4.73,0,0,1-1.81.23,5.09,5.09,0,0,1-2.55-.7.78.78,0,0,1-.36-.51l-.7-2.64c-1.4.19-2.79.46-4.08.74.24,2.08.47,4.21.74,6.34a23.55,23.55,0,0,0,6.12.74,17.39,17.39,0,0,0,6.86-1.16,6.76,6.76,0,0,0,4.08-6c0-3.71-2.27-5.05-5.61-6M462,313a7.24,7.24,0,0,0-1.43-4.13,6.21,6.21,0,0,0-4.78-2.64c-1.75,0-2.61.28-7.13,2.93h-.23c-.42-.57-2.27-3-4.78-3-1.84,0-2.68.32-6.94,2.82l-.15,0c-.18-.87-.26-1.76-.41-2.58,0-.1,0-.14-.14-.14-.27,0-7.23,1.11-9.35,1.34,0,1.2-.1,2.59-.1,3.75l2.79.09v11.4c0,.14-.05.23-.15.23l-2.31.14c0,1.2,0,2.65,0,3.9h11.67c0-1.3,0-2.65,0-3.94l-1.89-.1c0-2.74,0-7.41.1-10.14a7.52,7.52,0,0,1,3.43-1.35,1.5,1.5,0,0,1,1.58.84,4.87,4.87,0,0,1,.32,2.08v8.34c0,.1,0,.23-.14.23l-1.71.14v3.9H451c0-1.3,0-2.65,0-3.94l-1.86-.1c0-2.87.1-7.32.1-10.28a7.53,7.53,0,0,1,3.24-1.11,1.77,1.77,0,0,1,1.75,1,4.91,4.91,0,0,1,.33,2.27v7.92c0,.1-.1.19-.17.23l-1.58.09c0,1.2,0,2.65,0,3.9h11.39c.05-1.3.09-2.69.09-3.94l-2.41-.1c.05-3,.14-6.71.14-10m16.73,1.34c-3.57-1-4.36-1.2-4.36-2.27a1.78,1.78,0,0,1,.83-1.58,3.68,3.68,0,0,1,1.76-.37,3.3,3.3,0,0,1,1.81.51.75.75,0,0,1,.33.51l.69,2.46c1.44-.23,2.92-.42,4.17-.65-.18-2-.42-4.13-.65-6.17a19,19,0,0,0-5.55-.64,14.78,14.78,0,0,0-6.64,1.34,6.71,6.71,0,0,0-4,5.79c0,2.92,2,5,6.21,6.17,3.15.83,3.71,1.16,3.71,2.31a1.64,1.64,0,0,1-1,1.54,4.64,4.64,0,0,1-1.8.23,5.08,5.08,0,0,1-2.55-.7.8.8,0,0,1-.37-.51l-.69-2.64c-1.39.19-2.78.46-4.08.74.24,2.08.46,4.21.74,6.34a23.52,23.52,0,0,0,6.12.74,17.33,17.33,0,0,0,6.85-1.16,6.78,6.78,0,0,0,4.07-6c0-3.71-2.26-5.05-5.6-6m-82.27,8.29a2.12,2.12,0,0,1-2.14-2.09v-5.65c0-2.55.05-3.47.05-3.84,2.13,0,5,0,6.94,0,.14-1.39.19-3,.19-4.36-2.18,0-4.78,0-7.13,0,0-1.25.1-5.46.14-6.48,0-.14,0-.19-.14-.19a49.43,49.43,0,0,0-6.95,2.5c-.09,1.11-.18,2.6-.33,3.85a.34.34,0,0,1-.32.38c-.93,0-2.09.18-3,.23-.08,1.29-.13,2.63-.13,3.94h3.25c0,.42-.05,5.09-.05,6.06,0,.56,0,2.79,0,5.38a4,4,0,0,0,1.62,3.61,5,5,0,0,0,3.57,1.44H392a27.57,27.57,0,0,0,10.05-1.67c-.14-1.21-.33-2.64-.56-3.88a20.64,20.64,0,0,1-5,.69m-142.87,0c0-5.33.09-10.88.14-15.8,0,0-.06-.18-.1-.18-.7,0-8,.14-9.73.18,0,1.26-.09,2.65-.09,3.94l2.26.09c0,2.83.05,7.42,0,10.56a5,5,0,0,1-2.78,1,1.77,1.77,0,0,1-1.8-1c-.6-1-.55-2.59-.55-3.94,0-3.38.09-7.46.13-10.7,0-.05,0-.18-.13-.18-.66,0-7.46.22-9.4.32,0,1.2-.05,2.55-.05,3.8l2,.09c0,3-.05,6.68-.05,10.2,0,2.82,3.47,6.53,6.3,6.53,1.85,0,2.73-.14,6.58-2.32h.22a9.61,9.61,0,0,0,2.13,2.32,35.37,35.37,0,0,0,7.6-.88c0-1.25.05-2.65.05-3.85l-2.6.1c-.14,0-.18-.1-.18-.28m14.69-10.38-.33,0c-.14-2-.28-3.94-.42-5.89,0-.09,0-.14-.09-.14-.28,0-7.13,1-9.22,1.25,0,1.16-.09,2.54-.09,3.8l2.74.09V323a.21.21,0,0,1-.19.19l-2.18.14c-.05,1.16-.05,2.54-.05,3.75,2,0,4.54-.05,6.54-.05h7c0-1.2.1-2.54.1-3.75l-3.85-.14c0-.7,0-1.77,0-2.55a8.52,8.52,0,0,1,.7-3.94,9.1,9.1,0,0,1,2.41-3.24,2,2,0,0,1,1.29-.41,20,20,0,0,1,3,.46c.83-.78,2.17-4.54,2.17-6.67a9.86,9.86,0,0,0-3.33-.65c-2.32,0-3.39.65-6.26,6.12m-45.49,9.59a1.17,1.17,0,0,1-.88.84,17.73,17.73,0,0,1-3.67.32c-2.08,0-2.41-.14-2.41-1v-8.2c1.35,0,2.65,0,3.94.09.42,0,.65.28.74,1l.18,1.85c1.48,0,3-.09,4.35-.14,0-1.21,0-2.87.05-4.54s0-3.33,0-4.82c-1.33,0-2.87-.08-4.35,0l-.28,1.71c0,.55-.32.88-.6.88-1.31.05-2.61.05-4,.1v-8.76h.46a32.48,32.48,0,0,1,4.87.28c.65.09.83.37.92.79l.74,3.52c1.54-.15,3.15-.32,4.49-.47-.08-2.73-.23-5.5-.41-8.24-1.06,0-2.69,0-4.59,0H205.45c0,1.24,0,2.63,0,4l2.64.09v21.77a.19.19,0,0,1-.18.19l-2.41.14c0,1.25,0,2.65,0,3.9h6.35c6.44,0,12.82,0,15.2,0,.6-2.73,1.15-5.47,1.71-8.15-1.39-.33-3-.61-4.54-.84Zm69.39,1a2.24,2.24,0,0,1-2,1.07h-.05a2.28,2.28,0,0,1-2.09-1.25c-.69-1-1.11-2.56-1.11-6,0-2.83.47-4.63,1.25-5.75a2.37,2.37,0,0,1,2.1-1.11,2.4,2.4,0,0,1,2.16,1.43,12.72,12.72,0,0,1,.85,5.34c0,3.15-.19,5-1.08,6.25m4.92-15a11.75,11.75,0,0,0-6.35-1.71,12.83,12.83,0,0,0-7.5,2.22,11.07,11.07,0,0,0-4.45,9,9.73,9.73,0,0,0,3.43,7.88c1.85,1.62,4.62,2.22,7.32,2.22h0a12.16,12.16,0,0,0,6.72-1.76,11.14,11.14,0,0,0,5-9.31c0-4.12-1.81-7-4.21-8.57m31.13.88c-4.31-1.48-5.29-2-5.29-4.26a3.23,3.23,0,0,1,1.26-2.64,4.28,4.28,0,0,1,2.73-.84,3.74,3.74,0,0,1,2.36.74.75.75,0,0,1,.18.32l1.07,4.31c1.56-.18,3.28-.37,4.72-.6-.17-2.78-.37-5.65-.65-8.43a17.82,17.82,0,0,0-6.21-.88c-4.4,0-7.78,1.11-9.82,3a9.26,9.26,0,0,0-3.15,6.91c0,4.54,3.61,7.36,8.29,9.11,3.56,1.34,4.73,1.81,4.73,4.13a3.06,3.06,0,0,1-1.11,2.5,5.26,5.26,0,0,1-3.2.92,5.13,5.13,0,0,1-3.06-.87.86.86,0,0,1-.28-.42l-1.3-4.58c-1.57.18-3.38.51-4.86.83.32,2.83.65,5.7,1,8.61a24.42,24.42,0,0,0,7.09.93c4.53,0,7.55-.88,9.82-2.64a9.34,9.34,0,0,0,3.44-7.42c0-4.36-2.69-6.95-7.78-8.71M353,306.68c0,1.2,0,2.64,0,3.93l1.57.1c.14,0,.19,0,.19.24-.42,2-.8,3.47-1.17,5a49,49,0,0,1-1.39,4.92h-.27c-.7-2-1.3-3.66-1.85-5.43-.75-2.31-1.2-3.83-1.5-4.81l2.14-.1c.05-1.25.05-2.69.05-3.94h-12.1c0,1.21-.08,2.63-.08,4l1.76.1a.32.32,0,0,1,.28.14c.74,1.94,1.76,4.77,2.92,7.69,1.3,3.44,2.41,6.16,3.85,9.69a12.46,12.46,0,0,1-3.43,4.45,16,16,0,0,1-3.34,2.46c0,1.2,4,3.89,5.56,3.89,1.16-.64,2.37-2.46,3.57-4.36a118.6,118.6,0,0,0,6.86-14.17c1.39-3.42,3.23-8.2,3.89-9.82l1.66-.14c0-1.21.09-2.68.09-3.89-1.11,0-2.64,0-3.94,0H353Z" transform="translate(-116.28 -259.71)"></path><path class="cls-2" d="M127.85,300.22h38.3V268.58h-38.3Zm-11.57-28.72c0-4.64.88-7.77,2.6-9.38s5-2.42,9.76-2.42h36.72c4.77,0,8,.8,9.75,2.42s2.62,4.73,2.62,9.38v26.29c0,4.63-.87,7.76-2.62,9.36s-5,2.42-9.75,2.42H128.65q-7.14,0-9.76-2.42c-1.73-1.6-2.6-4.73-2.6-9.36Z" transform="translate(-116.28 -259.71)"></path><path class="cls-1" d="M147.11,317.81h38.31V286.16H147.11Zm-11.57-28.72q0-7,2.61-9.38t9.76-2.42h36.71q7.15,0,9.76,2.42t2.61,9.38v26.29q0,7-2.61,9.38t-9.76,2.42H147.91q-7.15,0-9.76-2.42t-2.61-9.38Z" transform="translate(-116.28 -259.71)"></path></svg>