<?xml version="1.0" standalone="no"?>
<!DOCTYPE svg PUBLIC "-//W3C//DTD SVG 1.1//EN" "http://www.w3.org/Graphics/SVG/1.1/DTD/svg11.dtd" >
<svg xmlns="http://www.w3.org/2000/svg" xmlns:xlink="http://www.w3.org/1999/xlink" version="1.1">
<metadata>
Created by FontForge 20200427 at Thu May  5 18:02:02 2011
 By www
Copyright (c) 1987, 2001 Adobe Systems Incorporated.  All rights reserved.
</metadata>
<defs>
<font id="OratorW01-Medium" horiz-adv-x="600" >
  <font-face 
    font-family="OratorW01-Medium"
    font-weight="400"
    font-stretch="normal"
    units-per-em="1000"
    panose-1="2 13 5 9 2 2 3 3 2 4"
    ascent="756"
    descent="-244"
    x-height="521"
    cap-height="667"
    bbox="0 -288 600 847"
    underline-thickness="63"
    underline-position="-152"
    unicode-range="U+0020-2122"
  />
<missing-glyph 
 />
    <glyph glyph-name=".notdef" 
 />
    <glyph glyph-name=".null" horiz-adv-x="0" 
 />
    <glyph glyph-name="nonmarkingreturn" 
 />
    <glyph glyph-name="space" unicode=" " 
 />
    <glyph glyph-name="exclam" unicode="!" 
d="M267 207l-18 460h102l-20 -460h-64zM254 148h92v-148h-92v148z" />
    <glyph glyph-name="quotedbl" unicode="&#x22;" 
d="M268 676v-111l-27 -135h-38l-27 135v111h92zM425 676v-111l-27 -135h-38l-27 135v111h92z" />
    <glyph glyph-name="numbersign" unicode="#" 
d="M311 805l-162 -901h-45l61 335h-134l8 44h134l28 157h-134l8 44h134l58 321h44zM284 -96l165 901h44l-58 -321h135l-9 -44h-134l-28 -157h134l-8 -44h-134l-62 -335h-45z" />
    <glyph glyph-name="dollar" unicode="$" 
d="M332 137q33 2 57.5 23.5t24.5 56.5q0 33 -25 54.5t-57 26.5v-161zM262 530q-25 -6 -40.5 -28t-15.5 -46q0 -25 16 -44t40 -27v145zM262 318q-26 7 -49 19t-40 30t-27 41t-10 51q0 26 10.5 49t28 40.5t40 29t47.5 15.5v83h70v-83q43 -4 78.5 -29t61.5 -58l-49 -43
q-34 37 -53 50.5t-38 16.5v-164q30 -5 57.5 -16t48.5 -30t33.5 -45t12.5 -59q0 -31 -13 -57t-34 -45t-48.5 -29.5t-56.5 -10.5v-83h-70v83q-47 2 -84.5 31.5t-61.5 67.5l55 40q17 -26 37.5 -48.5t53.5 -27.5v181z" />
    <glyph glyph-name="percent" unicode="%" 
d="M433 116q0 12 -2 25t-7.5 24.5t-15 18.5t-24.5 7t-24.5 -7t-15.5 -18.5t-8 -24.5t-2 -25t2 -25t8 -24.5t15.5 -18.5t24.5 -7t24.5 7t15 18.5t7.5 24.5t2 25zM518 655l-376 -664l-60 32l330 580q-11 -5 -22.5 -6.5t-22.5 -1.5q-28 0 -53 9q9 -26 9 -53q0 -25 -7 -48
t-21 -40t-34 -27.5t-47 -10.5t-47.5 10.5t-34.5 27.5t-21 40t-7 48t7 47.5t21 39.5t34.5 27.5t47.5 10.5q18 0 34 -4.5t33 -9.5q18 -6 37.5 -11.5t44.5 -5.5q30 0 61.5 6.5t57.5 23.5zM493 116q0 -25 -7 -47.5t-21 -40t-34 -27.5t-47 -10t-47.5 10t-34.5 27.5t-21 40
t-7 47.5t7 47.5t21 39.5t34.5 27.5t47.5 10.5t47 -10.5t34 -27.5t21 -39.5t7 -47.5zM263 551q0 12 -2 25t-7.5 24t-15 18.5t-24.5 7.5t-24.5 -7.5t-15.5 -18.5t-8 -24t-2 -25t2 -25.5t8 -24.5t15.5 -18.5t24.5 -7.5t24.5 7.5t15 18.5t7.5 24.5t2 25.5z" />
    <glyph glyph-name="ampersand" unicode="&#x26;" 
d="M248 236q-26 -18 -44 -37.5t-18 -54.5q0 -40 26 -65t66 -25q22 0 43 9t37 24zM285 334q24 17 42.5 37t18.5 52q0 33 -18.5 54.5t-53.5 21.5q-31 0 -47.5 -20t-16.5 -49q0 -26 12.5 -50t41.5 -61zM196 304q-22 29 -35.5 56t-13.5 66q0 60 35 98t95 38q29 0 53.5 -10.5
t42 -29t27 -43.5t9.5 -53q0 -24 -6 -44t-19 -38t-33.5 -36t-50.5 -38l98 -133q14 22 20.5 47t8.5 51l66 -13q-5 -38 -17.5 -74.5t-35.5 -67.5l41 -57l-51 -37l-36 49q-26 -20 -55.5 -32t-64.5 -12q-33 0 -61.5 11t-50 31.5t-34 48.5t-12.5 61q0 25 8 45.5t21 37t30 31
t36 27.5z" />
    <glyph glyph-name="quotesingle" unicode="'" 
d="M346 676v-111l-27 -135h-38l-27 135v111h92z" />
    <glyph glyph-name="parenleft" unicode="(" 
d="M402 637q-34 -32 -57.5 -71.5t-38.5 -82.5t-21.5 -88t-6.5 -90t6.5 -90.5t21.5 -88.5t38.5 -82t57.5 -71l-40 -40q-39 33 -68 77t-48 93t-28.5 100.5t-9.5 101.5q0 49 9.5 101t28.5 101t48 92.5t68 76.5z" />
    <glyph glyph-name="parenright" unicode=")" 
d="M238 676q39 -33 68 -76.5t48 -92.5t28.5 -101t9.5 -101q0 -50 -9.5 -101.5t-28.5 -100.5t-48 -93t-68 -77l-40 40q34 32 57.5 71t38.5 82t21.5 88.5t6.5 90.5t-6.5 90t-21.5 88t-38.5 82.5t-57.5 71.5z" />
    <glyph glyph-name="asterisk" unicode="*" 
d="M243 554l-63 74l68 48l52 -94l52 94l68 -48l-63 -74l100 10v-88l-100 9l63 -73l-68 -49l-52 95l-52 -95l-68 49l63 73l-100 -9v88zM300 548q-11 0 -19.5 -8.5t-8.5 -19.5q0 -12 8.5 -20t19.5 -8t19.5 8t8.5 20q0 11 -8.5 19.5t-19.5 8.5z" />
    <glyph glyph-name="plus" unicode="+" 
d="M566 338h-244v-244h-44v244h-244v44h244v244h44v-244h244v-44z" />
    <glyph glyph-name="comma" unicode="," 
d="M357 148v-45q0 -25 -9 -49t-24 -45t-35 -38.5t-43 -29.5l-23 55q26 17 34 41t8 50v61h92z" />
    <glyph glyph-name="hyphen" unicode="-" 
d="M189 292h222v-63h-222v63z" />
    <glyph glyph-name="period" unicode="." 
d="M254 148h92v-148h-92v148z" />
    <glyph glyph-name="slash" unicode="/" 
d="M129 -27l296 774h46l-296 -774h-46z" />
    <glyph glyph-name="zero" unicode="0" 
d="M300 676q53 0 87.5 -20t55 -52t30 -71.5t12.5 -77.5t2 -70.5t-1 -51.5q0 -27 0.5 -62.5t-3.5 -73.5t-13.5 -75t-30.5 -66t-54.5 -47t-84.5 -18t-84.5 17.5t-54.5 46t-30.5 64.5t-13.5 74t-3.5 74.5t0.5 65.5q0 59 2 120t18.5 110.5t54.5 81t111 31.5zM300 613
q-47 0 -71 -25t-34 -65t-10.5 -90t-0.5 -100q0 -98 8.5 -154t24 -84t36.5 -34.5t47 -6.5q29 0 50.5 8.5t36 38t22 84.5t7.5 148q0 97 -8 152.5t-23 84t-36.5 36t-48.5 7.5z" />
    <glyph glyph-name="one" unicode="1" 
d="M279 586l-122 -47l-21 61l210 80v-620h143v-60h-378v60h168v526z" />
    <glyph glyph-name="two" unicode="2" 
d="M114 60l247 319q12 15 22 29t17.5 28.5t12 31t4.5 36.5q0 48 -29 78.5t-78 30.5q-30 0 -52.5 -11t-38 -29t-25 -42.5t-13.5 -51.5l-66 9q6 42 20.5 76.5t38.5 59t58 38.5t78 14q79 0 128 -45t49 -125q0 -48 -20.5 -87t-49.5 -76l-218 -283h287v-60h-372v60z" />
    <glyph glyph-name="three" unicode="3" 
d="M192 404l197 203h-278v60h370v-60l-185 -189q39 1 74 -10t61.5 -32.5t42 -53.5t15.5 -74q0 -67 -32.5 -118t-88.5 -85q-21 -13 -44 -23t-52.5 -17t-66.5 -10.5t-85 -3.5v63q41 0 71.5 2t53 6.5t38.5 10t29 13.5q45 24 76 65.5t31 94.5q0 32 -13 53.5t-34 34.5t-47.5 18.5
t-54.5 5.5q-20 0 -39 -3t-39 -5v54z" />
    <glyph glyph-name="four" unicode="4" 
d="M110 167l99 513l67 -18l-86 -435h181v339h67v-339h53v-60h-53v-167h-67v167h-261z" />
    <glyph glyph-name="five" unicode="5" 
d="M137 667h342v-60h-275v-205q25 9 49 15t50 6q37 0 69.5 -12t57.5 -35t39.5 -55.5t14.5 -74.5q0 -66 -32 -118t-86 -87q-20 -12 -43 -21.5t-53 -16t-67.5 -9.5t-86.5 -3v63q63 0 112 5.5t83 23.5q45 24 74 67t29 96q0 54 -32.5 84t-85.5 30q-32 0 -58 -10.5t-53 -24.5h-48
v342z" />
    <glyph glyph-name="six" unicode="6" 
d="M422 563q-23 20 -49 35t-58 15q-45 0 -71 -25.5t-39 -62.5t-17 -79.5t-5 -75.5q30 26 61.5 40t71.5 14q47 0 80 -18t53.5 -48t29.5 -68.5t9 -79.5q0 -45 -12 -84.5t-36 -69.5t-60 -47.5t-84 -17.5q-43 0 -73.5 16t-50.5 42.5t-32 61t-18 72t-7.5 74.5t-1.5 69
q0 51 5.5 112t25.5 114t60 88.5t108 35.5q42 0 80 -15t68 -43zM183 296q0 -78 10 -126t26.5 -73.5t37.5 -34t44 -8.5q31 0 53 12.5t36 33.5t21 49t7 58q0 28 -5 56t-17.5 49.5t-34.5 35t-55 13.5q-36 0 -66.5 -20.5t-56.5 -44.5z" />
    <glyph glyph-name="seven" unicode="7" 
d="M419 607h-275v60h372l-303 -680l-60 27z" />
    <glyph glyph-name="eight" unicode="8" 
d="M300 311q-22 -14 -43.5 -27t-39 -29t-28 -37t-10.5 -51q0 -26 9.5 -47t26 -35.5t38.5 -22.5t47 -8t47 8t38.5 22.5t26 35.5t9.5 47q0 30 -10.5 51t-28 37t-39 29t-43.5 27zM300 380l36 24t32 26t22.5 32.5t8.5 43.5q0 45 -25.5 76t-73.5 31t-73.5 -31t-25.5 -76
q0 -25 8.5 -43.5t22.5 -32.5t32 -26zM358 345q28 -14 52.5 -30t42.5 -36.5t28 -47t10 -61.5q0 -41 -15 -74t-41 -56.5t-60.5 -36t-74.5 -12.5t-74.5 12.5t-60.5 36t-41 56.5t-15 74q0 35 10 61.5t28 47t42.5 36.5t53.5 30q-23 14 -43.5 30t-35.5 35.5t-24 43t-9 52.5
q0 36 12.5 67.5t35 54t53.5 35.5t68 13t68 -13t53.5 -35.5t35 -54t12.5 -67.5q0 -29 -9 -52.5t-24 -43t-35 -35.5t-43 -30z" />
    <glyph glyph-name="nine" unicode="9" 
d="M178 104q23 -21 49.5 -35.5t58.5 -14.5q45 0 71 25.5t39 62.5t16.5 79.5t4.5 75.5q-29 -26 -61 -40t-71 -14q-47 0 -80 18t-53.5 47.5t-29.5 68t-9 80.5q0 44 12 84t35.5 70t59.5 47.5t84 17.5q65 0 101.5 -34.5t54.5 -85.5t22.5 -109t4.5 -106q0 -34 -2 -73t-9 -78
t-20 -75t-35.5 -63.5t-55 -44t-77.5 -16.5q-41 0 -79.5 15t-68.5 43zM417 370q0 77 -9.5 124.5t-25.5 74t-37 35.5t-45 9q-31 0 -53 -12.5t-36.5 -33.5t-21 -49t-6.5 -59q0 -29 5 -56t17.5 -49t34 -35t55.5 -13q35 0 66 20.5t56 43.5z" />
    <glyph glyph-name="colon" unicode=":" 
d="M254 148h92v-148h-92v148zM254 432h92v-148h-92v148z" />
    <glyph glyph-name="semicolon" unicode=";" 
d="M357 148v-45q0 -25 -9 -49t-24 -45t-35 -38.5t-43 -29.5l-23 55q26 17 34 41t8 50v61h92zM265 432h92v-148h-92v148z" />
    <glyph glyph-name="less" unicode="&#x3c;" 
d="M477 720l25 -32l-340 -328l340 -328l-25 -32l-379 360z" />
    <glyph glyph-name="equal" unicode="=" 
d="M566 405h-532v44h532v-44zM566 271h-532v44h532v-44z" />
    <glyph glyph-name="greater" unicode="&#x3e;" 
d="M502 360l-379 -360l-25 32l340 328l-340 328l25 32z" />
    <glyph glyph-name="question" unicode="?" 
d="M262 220v17q0 27 2 44.5t8.5 32t19 28t33.5 31.5q16 13 31.5 27t28 29.5t20 34t7.5 41.5q0 47 -26 77.5t-75 30.5q-30 0 -52 -12t-37 -31.5t-24.5 -44t-13.5 -50.5l-66 17q8 40 22 74t37 58.5t55.5 38t76.5 13.5q39 0 70.5 -12t54.5 -33.5t35.5 -53t12.5 -70.5
q0 -29 -7.5 -52.5t-21 -44t-31.5 -38.5t-39 -36q-15 -14 -25 -23t-16 -19.5t-8.5 -24t-2.5 -35.5v-14h-69zM250 148h92v-148h-92v148z" />
    <glyph glyph-name="at" unicode="@" 
d="M526 68q-55 -36 -117.5 -56.5t-128.5 -20.5q-47 0 -93.5 16.5t-84 51.5t-60.5 89.5t-23 129.5q0 68 19 139t57 128.5t95.5 94t134.5 36.5q40 0 85 -15.5t83 -49t63 -86.5t25 -127q0 -34 -8 -74t-26 -74t-47 -57t-71 -23q-15 0 -26 2.5t-20 7.5t-18 12.5t-19 18.5
q-23 -20 -41.5 -30.5t-50.5 -10.5q-40 0 -65.5 25t-25.5 65q0 39 15 83.5t39 75.5q11 14 26 25.5t39 19.5t59 12t87 2l-25 -151q-2 -10 -4.5 -27t-2.5 -27q0 -17 8 -28.5t26 -11.5q24 0 39.5 18t25 43.5t13 53t3.5 45.5q0 49 -14 90t-39 69.5t-60.5 44.5t-78.5 16
q-44 0 -85.5 -22.5t-73.5 -65t-51.5 -105.5t-19.5 -144q0 -104 53 -163t143 -59q62 0 114 22t103 55zM351 415q-19 -4 -39 -8t-34 -21q-9 -11 -17 -25.5t-14.5 -31t-10 -33t-3.5 -31.5q0 -11 6 -21.5t20 -10.5q11 0 22.5 7t23 24.5t22 47.5t19.5 77z" />
    <glyph glyph-name="A" unicode="A" 
d="M209 206l-52 -219l-66 18l169 662h80l169 -662l-66 -18l-52 219h-182zM301 578h-2l-74 -312h150z" />
    <glyph glyph-name="B" unicode="B" 
d="M334 60q45 0 73 34t28 107q0 37 -9 62.5t-24.5 41t-37.5 22t-48 6.5h-73v-273h91zM303 393q101 0 101 106q0 62 -30.5 85t-91.5 23h-39v-214h60zM122 0v60h54v547h-54v60h204q27 0 53.5 -11t47.5 -32.5t34 -53t13 -71.5q0 -42 -17 -75.5t-54 -53.5q57 -25 79.5 -67.5
t22.5 -102.5q0 -52 -13.5 -90t-36 -62.5t-53.5 -36t-65 -11.5h-215z" />
    <glyph glyph-name="C" unicode="C" 
d="M487 100q-29 -48 -72.5 -78.5t-100.5 -30.5q-44 0 -75.5 16t-53.5 43t-36 62.5t-22 73.5t-10.5 76t-2.5 71t2.5 71.5t10.5 76.5t22 73.5t36 62.5t53.5 43t75.5 16q57 0 97 -30t66 -78l-57 -34q-16 32 -42 55.5t-64 23.5q-31 0 -52 -14.5t-35.5 -38.5t-23 -54t-13 -61
t-5.5 -60.5t-1 -51.5t1 -51t5.5 -60t13 -61t23 -54t35.5 -38.5t52 -14.5q19 0 36.5 7.5t32.5 19.5t27.5 27t21.5 30z" />
    <glyph glyph-name="D" unicode="D" 
d="M119 607v60h176q50 0 89.5 -13.5t67 -50.5t42 -102t14.5 -168q0 -55 -4.5 -114t-25 -107.5t-63 -80t-118.5 -31.5h-178v60h54v547h-54zM240 60h55q30 0 56.5 7t45.5 35t30 82t11 149t-11.5 150t-30 82.5t-41 34.5t-44.5 7h-71v-547z" />
    <glyph glyph-name="E" unicode="E" 
d="M157 667h325v-60h-258v-220h213v-60h-213v-267h258v-60h-325v667z" />
    <glyph glyph-name="F" unicode="F" 
d="M176 667h328v-60h-261v-220h219v-60h-219v-327h-67v667z" />
    <glyph glyph-name="G" unicode="G" 
d="M476 49q-32 -26 -72.5 -42t-82.5 -16q-43 0 -74.5 16t-54 43t-37 62t-22.5 72.5t-11 76t-3 71.5q0 47 7 106.5t28 112.5t59.5 89t100.5 36q57 0 98 -30.5t69 -76.5l-59 -36q-18 32 -45 56t-67 24q-28 0 -47.5 -15.5t-33 -40.5t-21.5 -56t-12 -62.5t-5.5 -60t-1.5 -48.5
q0 -86 11.5 -140t30 -84t42.5 -41t49 -11q21 0 45.5 8.5t41.5 22.5v201h-125v60h192v-297z" />
    <glyph glyph-name="H" unicode="H" 
d="M130 667h67v-280h206v280h67v-667h-67v327h-206v-327h-67v667z" />
    <glyph glyph-name="I" unicode="I" 
d="M266 607h-90v60h248v-60h-91v-547h91v-60h-248v60h90v547z" />
    <glyph glyph-name="J" unicode="J" 
d="M176 242v-67q0 -20 5 -41.5t16 -39t30 -29t48 -11.5q45 0 70.5 36.5t25.5 93.5v483h67v-490q0 -48 -14 -83t-37.5 -58t-54 -34t-62.5 -11q-31 0 -60 11t-51.5 34.5t-36 59t-13.5 84.5v62h67z" />
    <glyph glyph-name="K" unicode="K" 
d="M229 392h18l186 288l54 -34l-183 -282l219 -343l-56 -34l-215 345h-23v-332h-67v667h67v-275z" />
    <glyph glyph-name="L" unicode="L" 
d="M169 667h67v-607h274v-60h-341v667z" />
    <glyph glyph-name="M" unicode="M" 
d="M396 667h84l20 -667h-71l-13 556h-2l-114 -335l-114 335h-2l-13 -556h-70l20 667h83l96 -283z" />
    <glyph glyph-name="N" unicode="N" 
d="M126 667h84l198 -561l2 2l-3 149v410h67v-667h-84l-198 562l-2 -2l3 -151v-409h-67v667z" />
    <glyph glyph-name="O" unicode="O" 
d="M300 676q47 0 79 -19t52.5 -50t31.5 -69t16 -76t5.5 -72t0.5 -56q0 -21 -0.5 -54.5t-5.5 -71.5t-16 -77t-31.5 -70t-52.5 -50.5t-79 -19.5q-48 0 -80 19.5t-52.5 50.5t-31.5 69.5t-15.5 76.5t-5 71.5t-0.5 55.5q0 28 1.5 64t7 74t17 74.5t32 65.5t51.5 46.5t76 17.5z
M300 613q-30 0 -49.5 -14t-32.5 -36.5t-19.5 -52t-9.5 -60.5t-3.5 -61.5t-0.5 -54.5q0 -68 4.5 -120t17.5 -87.5t35.5 -54t57.5 -18.5q43 0 66.5 27.5t34.5 69t12.5 90.5t1.5 93q0 47 -1.5 96.5t-12 90t-34 66.5t-67.5 26z" />
    <glyph glyph-name="P" unicode="P" 
d="M229 0h-67v667h145q89 0 136.5 -45.5t47.5 -131.5q0 -47 -12.5 -82.5t-34 -60.5t-51.5 -37.5t-64 -12.5h-100v-297zM229 357l94 1q47 1 72.5 35t25.5 97q0 62 -30.5 89.5t-84.5 27.5h-77v-250z" />
    <glyph glyph-name="Q" unicode="Q" 
d="M484 23l-51 -42l-39 47q-20 -17 -44 -27t-50 -10q-35 0 -68 18.5t-59 59t-42 105.5t-16 159q0 87 14.5 151.5t39 107t58.5 63.5t73 21q35 0 68 -18t59 -59t42 -106.5t16 -159.5q0 -31 -2 -64t-7.5 -65.5t-15.5 -64t-25 -58.5zM268 177l51 43l70 -83q15 46 20.5 95.5
t5.5 98.5q0 19 -1 47.5t-4.5 59.5t-11 62.5t-20.5 56.5t-32.5 40.5t-46.5 15.5t-46 -16t-32 -41t-20 -57t-10.5 -63.5t-4.5 -60t-1 -47.5q0 -18 1 -45t5 -57.5t11 -61t19.5 -55t30.5 -40t43 -15.5q36 0 58 22z" />
    <glyph glyph-name="R" unicode="R" 
d="M229 357h98q44 0 69 32.5t25 100.5q0 65 -29.5 91t-80.5 26h-82v-250zM162 667h180q25 0 51 -11t48 -32.5t36 -55t14 -78.5q0 -31 -6.5 -60t-20.5 -54t-35.5 -44.5t-52.5 -29.5l138 -286l-60 -29l-150 310h-75v-297h-67v667z" />
    <glyph glyph-name="S" unicode="S" 
d="M396 515q-4 18 -11 36t-18 31.5t-26.5 22t-36.5 8.5q-24 0 -40.5 -9t-27 -23.5t-15.5 -34t-5 -40.5q0 -20 3.5 -34.5t15.5 -29t35 -30.5t62 -40q31 -18 56.5 -36t43.5 -40t28 -50t10 -67t-10.5 -73.5t-31.5 -60t-52.5 -40t-73.5 -14.5q-44 0 -75 14t-51 38.5t-30.5 58
t-14.5 73.5l67 9q3 -28 9 -51.5t17 -41t30.5 -27.5t49.5 -10q44 0 71.5 29.5t27.5 89.5q0 33 -10 56t-27 41t-40 32t-49 29q-29 17 -52.5 32.5t-40.5 35t-26 45t-9 62.5q0 34 11 64.5t31 54t48.5 37.5t64.5 14q35 0 61.5 -12t45.5 -32t31.5 -48t18.5 -59z" />
    <glyph glyph-name="T" unicode="T" 
d="M268 607h-144v60h352v-60h-141v-607h-67v607z" />
    <glyph glyph-name="U" unicode="U" 
d="M204 667v-485q0 -25 3.5 -48t13.5 -41t29 -28.5t50 -10.5t50 11t29.5 29t14 41t3.5 47v485h67v-505q0 -39 -11.5 -70.5t-33 -54t-52 -34.5t-67.5 -12q-38 0 -68 12.5t-51 34.5t-32.5 53t-11.5 68v508h67z" />
    <glyph glyph-name="V" unicode="V" 
d="M438 680l68 -14l-198 -679h-16l-198 679l68 14l138 -499z" />
    <glyph glyph-name="W" unicode="W" 
d="M508 667l-67 -680h-29l-111 403h-2l-111 -403h-29l-67 680l67 13l32 -501h2l97 351h20l97 -351h2l32 501z" />
    <glyph glyph-name="X" unicode="X" 
d="M153 -13l-60 28l174 348l-143 286l62 31l114 -249l114 249l62 -31l-143 -286l174 -348l-60 -28l-146 305z" />
    <glyph glyph-name="Y" unicode="Y" 
d="M444 680l62 -25l-173 -392v-263h-67v263l-172 392l62 25l144 -339z" />
    <glyph glyph-name="Z" unicode="Z" 
d="M387 607h-254v60h355l-282 -607h290v-60h-392z" />
    <glyph glyph-name="bracketleft" unicode="[" 
d="M448 676v-60h-203v-594h203v-60h-270v714h270z" />
    <glyph glyph-name="backslash" unicode="\" 
d="M129 747h46l296 -774h-46z" />
    <glyph glyph-name="bracketright" unicode="]" 
d="M422 -38h-270v60h203v594h-203v60h270v-714z" />
    <glyph glyph-name="asciicircum" unicode="^" 
d="M110 357l164 323h52l161 -323h-50l-137 275l-140 -275h-50z" />
    <glyph glyph-name="underscore" unicode="_" 
d="M0 -108v36h600v-36h-600z" />
    <glyph glyph-name="grave" unicode="`" 
d="M413 594l-26 -44l-187 82l36 63z" />
    <glyph glyph-name="a" unicode="a" 
d="M208 142l-49 -155l-66 24l164 510h86l164 -510l-66 -24l-48 155h-185zM300 443l-74 -241h148z" />
    <glyph glyph-name="b" unicode="b" 
d="M321 60q22 0 42.5 3t36.5 12t25.5 25.5t9.5 43.5q0 39 -25 66.5t-73 27.5h-94v-178h78zM318 298q44 0 65.5 24.5t21.5 59.5q0 23 -7.5 38.5t-20.5 24.5t-29 12.5t-34 3.5h-71v-163h75zM122 0v60h54v401h-54v60h164q100 0 144.5 -36t44.5 -103q0 -34 -14.5 -62t-44.5 -45
q43 -14 66 -47.5t23 -78.5q0 -71 -44.5 -110t-126.5 -39h-212z" />
    <glyph glyph-name="c" unicode="c" 
d="M487 100q-32 -50 -72 -79.5t-101 -29.5q-57 0 -95.5 24t-61.5 62t-33 86.5t-10 96.5q0 78 18.5 130t47 83t62.5 44t66 13q61 0 99 -29.5t66 -81.5l-61 -31q-17 32 -41 55.5t-62 23.5q-39 0 -63.5 -21t-38 -52t-18.5 -67t-5 -66t4.5 -66.5t18 -67.5t38 -52t64.5 -21
q23 0 40.5 6.5t32 18t26.5 26.5t24 33z" />
    <glyph glyph-name="d" unicode="d" 
d="M119 521h174q55 0 96 -12.5t67 -42t39 -78.5t13 -121q0 -61 -7.5 -110.5t-30 -84t-65 -53.5t-112.5 -19h-174v60h54v401h-54v60zM240 60h71q33 0 57 10t39.5 33.5t23 62t7.5 94.5q0 60 -8.5 99t-25 61.5t-40.5 31.5t-55 9h-69v-401z" />
    <glyph glyph-name="e" unicode="e" 
d="M157 521h325v-60h-258v-156h213v-60h-213v-185h258v-60h-325v521z" />
    <glyph glyph-name="f" unicode="f" 
d="M176 521h328v-60h-261v-156h219v-60h-219v-245h-67v521z" />
    <glyph glyph-name="g" unicode="g" 
d="M476 48q-32 -26 -76 -41.5t-84 -15.5q-57 0 -95 24t-60.5 63t-32 87t-9.5 96q0 47 9.5 95t32 86.5t60 63t93.5 24.5q53 0 96.5 -27.5t70.5 -72.5l-57 -37q-19 32 -47.5 53t-66.5 21q-39 0 -62.5 -21.5t-36.5 -53t-17.5 -67.5t-4.5 -66t4.5 -66t17.5 -67t37.5 -51.5
t63.5 -20.5q53 0 97 27v137h-125v60h192v-230z" />
    <glyph glyph-name="h" unicode="h" 
d="M130 521h67v-216h206v216h67v-521h-67v245h-206v-245h-67v521z" />
    <glyph glyph-name="i" unicode="i" 
d="M193 60h73v401h-73v60h214v-60h-74v-401h74v-60h-214v60z" />
    <glyph glyph-name="j" unicode="j" 
d="M176 194q-3 -77 19.5 -108.5t74.5 -31.5q51 0 76 28t25 76v363h67v-376q0 -28 -10 -55.5t-30.5 -49.5t-52.5 -35.5t-75 -13.5q-85 0 -123 49t-38 154h67z" />
    <glyph glyph-name="k" unicode="k" 
d="M229 299h25l179 235l51 -40l-173 -219l203 -245l-51 -43l-211 257h-23v-244h-67v521h67v-222z" />
    <glyph glyph-name="l" unicode="l" 
d="M170 521h67v-461h273v-60h-340v521z" />
    <glyph glyph-name="m" unicode="m" 
d="M183 422h-2l-13 -422h-71l21 521h88l94 -226l94 226h88l21 -521h-71l-13 422h-2l-117 -275z" />
    <glyph glyph-name="n" unicode="n" 
d="M126 521h83l202 -439l2 2l-6 135v302h67v-521h-83l-202 439l-2 -2l6 -136v-301h-67v521z" />
    <glyph glyph-name="o" unicode="o" 
d="M300 530q31 0 64 -12.5t60 -43.5t44 -83t17 -131q0 -11 -1 -35t-6.5 -53.5t-17 -61.5t-32 -58.5t-52 -43.5t-76.5 -17q-32 0 -64.5 12.5t-59.5 43.5t-44 83t-17 130t17 130t43.5 83t59.5 44t65 13zM300 467q-38 0 -60.5 -21.5t-34.5 -53t-16 -67.5t-4 -65t4 -64.5t16 -67
t34.5 -53t60.5 -21.5t60.5 21.5t34.5 53t16 67t4 64.5t-4 65t-16 67.5t-34.5 53t-60.5 21.5z" />
    <glyph glyph-name="p" unicode="p" 
d="M229 0h-67v521h162q45 0 77 -11.5t52.5 -31t29.5 -45.5t9 -54q0 -41 -13.5 -70.5t-35 -48.5t-48.5 -27.5t-54 -8.5h-112v-224zM321 284q101 0 101 90q0 27 -8 43.5t-22 26.5t-32 13.5t-39 3.5h-92v-177h92z" />
    <glyph glyph-name="q" unicode="q" 
d="M500 16l-42 -45l-58 53q-44 -33 -100 -33q-31 0 -64 12.5t-60 43.5t-44 83t-17 130q0 75 15.5 126.5t41.5 83.5t59.5 46t68.5 14q31 0 64 -12.5t60 -43.5t44 -83t17 -131q0 -46 -9 -98.5t-35 -91.5zM265 147l41 46l84 -77q14 34 19.5 71t5.5 73q0 29 -4 65t-16 67.5
t-34.5 53t-60.5 21.5t-60.5 -21.5t-34.5 -53t-16 -67.5t-4 -65t4 -64.5t16 -67t34.5 -53t60.5 -21.5q27 0 52 14z" />
    <glyph glyph-name="r" unicode="r" 
d="M304 283q49 0 78.5 25.5t29.5 70.5q0 35 -21.5 58.5t-66.5 23.5h-108v-178h88zM149 521h177q33 0 61.5 -8t49.5 -25t33 -44t12 -65q0 -24 -7.5 -47t-21.5 -42.5t-33.5 -34.5t-43.5 -22l128 -211l-58 -35l-133 236h-97v-223h-67v521z" />
    <glyph glyph-name="s" unicode="s" 
d="M191 165q10 -48 35.5 -79.5t78.5 -31.5q42 0 70 22t28 66q0 24 -9 40t-24 27t-34 18.5t-38 15.5q-29 12 -55.5 23t-47 27t-33 39.5t-12.5 60.5q0 33 12.5 58.5t33.5 43t48.5 26.5t58.5 9q66 0 104.5 -35t54.5 -96l-64 -19q-9 38 -31 62.5t-65 24.5q-16 0 -31.5 -4
t-27.5 -12.5t-19 -21.5t-7 -31t5.5 -30.5t14.5 -21.5t22 -15.5t28 -13.5l111 -49q72 -40 72 -122q0 -37 -12.5 -66t-34 -48.5t-52 -30t-66.5 -10.5q-73 0 -117.5 42.5t-56.5 112.5z" />
    <glyph glyph-name="t" unicode="t" 
d="M268 461h-144v60h352v-60h-141v-461h-67v461z" />
    <glyph glyph-name="u" unicode="u" 
d="M204 521v-355q0 -57 19.5 -84.5t71.5 -27.5q31 0 51 7t31.5 21t15.5 35t4 49v355h67v-387q0 -26 -9.5 -51.5t-29.5 -46t-51 -33t-74 -12.5q-42 0 -73 12.5t-51 32.5t-29.5 46.5t-9.5 55.5v383h67z" />
    <glyph glyph-name="v" unicode="v" 
d="M442 534l64 -24l-200 -523h-12l-200 523l64 24l142 -382z" />
    <glyph glyph-name="w" unicode="w" 
d="M162 534l40 -366h2l87 256h18l87 -256h2l41 366l68 -8l-75 -539h-23l-109 321l-109 -321h-23l-75 539z" />
    <glyph glyph-name="x" unicode="x" 
d="M161 -13l-60 34l161 255l-147 223l61 35l124 -198l124 198l61 -35l-147 -223l161 -255l-60 -34l-139 230z" />
    <glyph glyph-name="y" unicode="y" 
d="M439 534l63 -33l-169 -300v-201h-67v201l-168 300l63 33l139 -268z" />
    <glyph glyph-name="z" unicode="z" 
d="M377 461h-244v60h355l-271 -461h279v-60h-392z" />
    <glyph glyph-name="braceleft" unicode="{" 
d="M323 59q0 -28 5 -47t17.5 -31t35 -17.5t57.5 -5.5h23v-25h-33q-52 0 -85 7.5t-52.5 24t-27 43.5t-7.5 65v132q0 34 -6 50.5t-19 24.5t-33 11.5t-47 12.5q27 9 47 13.5t32.5 13t19 24.5t6.5 49v133q0 37 8 63.5t25.5 43.5t46 24.5t69.5 7.5h56v-25h-24q-36 0 -58.5 -5.5
t-35 -17.5t-16.5 -31t-4 -46v-140q0 -17 -1 -32.5t-5.5 -29t-13.5 -25t-26 -20.5q17 -9 26 -20t13.5 -24.5t5.5 -28.5t1 -32v-140z" />
    <glyph glyph-name="bar" unicode="|" 
d="M278 792h44v-1080h-44v1080z" />
    <glyph glyph-name="braceright" unicode="}" 
d="M277 550q0 28 -5 47t-17.5 31t-35 17.5t-57.5 5.5h-23v25h33q52 0 85 -7.5t52.5 -24t27 -43.5t7.5 -65v-132q0 -34 6 -50.5t19 -24.5t33 -11.5t47 -12.5q-27 -9 -47 -13.5t-32.5 -13t-19 -24.5t-6.5 -49v-133q0 -75 -33.5 -107t-115.5 -32h-56v25h24q36 0 58.5 5.5
t35 17.5t16.5 31t4 46v140q0 17 1 32t5.5 28.5t13.5 25.5t26 21q-17 9 -26 20t-13.5 24.5t-5.5 28.5t-1 32v140z" />
    <glyph glyph-name="asciitilde" unicode="~" 
d="M570 418q-11 -20 -26.5 -40.5t-34.5 -37t-41.5 -26.5t-47.5 -10q-22 0 -55 11.5t-67.5 26t-66.5 26t-51 11.5q-23 0 -40.5 -9t-31.5 -23.5t-25.5 -32.5t-21.5 -35l-31 23q11 20 25.5 41.5t32.5 39t39.5 29t47.5 11.5q31 0 65 -11.5t67 -26t62 -26t50 -11.5q19 0 37.5 8.5
t34 21.5t27.5 29.5t20 33.5z" />
    <glyph glyph-name="uni00A0" unicode="&#xa0;" 
 />
    <glyph glyph-name="exclamdown" unicode="&#xa1;" 
d="M249 667h92v-148h-92v148zM346 0h-102l18 460h64z" />
    <glyph glyph-name="cent" unicode="&#xa2;" 
d="M340 -9h-67v79q-47 10 -77.5 37t-48.5 64t-25.5 80t-7.5 85t7.5 85.5t25.5 80.5t48.5 64t77.5 37v73h67v-72q22 -3 42 -13t37 -24.5t30.5 -33t23.5 -37.5l-61 -32q-12 23 -29 43.5t-43 30.5v-405q31 8 53.5 31.5t38.5 49.5l55 -38q-26 -41 -61 -71.5t-86 -36.5v-77z
M273 537q-29 -11 -46 -33.5t-27 -50.5t-13 -58.5t-3 -57.5t3 -57.5t12.5 -59t27 -51.5t46.5 -33v401z" />
    <glyph glyph-name="sterling" unicode="&#xa3;" 
d="M420 404v-60h-166q8 -30 16.5 -61t8.5 -62q0 -41 -14.5 -71.5t-34.5 -65.5q34 8 66 8q20 0 37 -5.5t32 -13.5q14 -7 26.5 -13.5t23.5 -6.5q20 0 35 12t29 24l40 -44q-23 -22 -46.5 -38t-56.5 -16q-20 0 -35 5.5t-30 13.5q-15 7 -31.5 13t-39.5 6q-33 0 -59 -11.5
t-54 -26.5l-36 47q22 37 37 64t24 47.5t13 36t4 30.5q0 28 -7.5 64t-15.5 64h-106v60h89q-8 27 -15.5 54.5t-7.5 56.5q0 35 14 64.5t38 51t55.5 33.5t65.5 12q60 0 106.5 -30.5t69.5 -85.5l-61 -22q-17 35 -43 56.5t-68 21.5q-48 0 -77.5 -29t-29.5 -79q0 -29 6 -52t14 -52
h184z" />
    <glyph glyph-name="currency" unicode="&#xa4;" 
d="M11 613l33 32l108 -107q32 26 69.5 39t78.5 13t78.5 -13t69.5 -39l108 107l33 -32l-109 -107q25 -34 37.5 -69t12.5 -77t-12.5 -77t-37.5 -69l109 -107l-33 -32l-108 107q-32 -26 -69.5 -39t-78.5 -13t-78.5 13t-69.5 39l-108 -107l-33 32l109 107q-25 34 -37.5 69
t-12.5 77t12.5 77t37.5 69zM300 169q40 0 75 14.5t61 40.5t40.5 60.5t14.5 75.5q0 40 -14.5 75.5t-40.5 61t-61 40.5t-75 15q-41 0 -75.5 -15t-60.5 -40.5t-40.5 -61t-14.5 -75.5q0 -41 14.5 -75.5t40.5 -60.5t60.5 -40.5t75.5 -14.5z" />
    <glyph glyph-name="yen" unicode="&#xa5;" 
d="M480 327v-60h-147v-267h-67v267h-146v60h122l-148 328l62 25l144 -339l144 339l62 -25l-148 -328h122z" />
    <glyph glyph-name="brokenbar" unicode="&#xa6;" 
d="M322 792v-360h-44v360h44zM322 72v-360h-44v360h44z" />
    <glyph glyph-name="section" unicode="&#xa7;" 
d="M352 449q20 -10 40 -21t36.5 -25t26.5 -33t10 -44q0 -31 -15 -57t-39 -44q25 -19 40 -42t15 -56q0 -32 -13.5 -57.5t-35.5 -43t-50.5 -26.5t-58.5 -9q-63 0 -110 35.5t-64 95.5l67 23q12 -40 40 -67t73 -27q32 0 57 17.5t25 52.5q0 18 -6.5 30t-17.5 21t-24.5 16
t-26.5 14l-48 25q-22 12 -44 23.5t-39.5 26.5t-28.5 35t-11 49t14 55t37 42q-42 36 -42 91q0 30 13 53.5t34 40t47.5 25t53.5 8.5q50 0 90.5 -29t59.5 -74l-59 -26q-13 29 -35.5 49t-57.5 20q-32 0 -54 -18t-22 -51q0 -17 8 -28.5t19.5 -20t25.5 -15t26 -12.5zM251 430
q-14 -14 -22.5 -30.5t-8.5 -36.5q0 -17 8.5 -30t31.5 -25l102 -54q15 11 24 28.5t9 36.5q0 15 -7 26.5t-18 20.5t-24 15.5t-24 12.5z" />
    <glyph glyph-name="dieresis" unicode="&#xa8;" 
d="M208 680q25 0 36.5 -21t11.5 -42t-11.5 -42t-36.5 -21t-36.5 21t-11.5 42q0 22 11.5 42.5t36.5 20.5zM392 680q25 0 36.5 -21t11.5 -42t-11.5 -42t-36.5 -21t-36.5 21t-11.5 42q0 22 11.5 42.5t36.5 20.5z" />
    <glyph glyph-name="copyright" unicode="&#xa9;" 
d="M301 676q62 0 116 -26.5t94 -73t63 -109t23 -133.5t-23 -133.5t-63 -109t-94 -73.5t-116 -27t-116 27t-94.5 73.5t-64 109t-23.5 133.5t23.5 133.5t64 109t94.5 73t116 26.5zM301 626q-45 0 -89.5 -20t-79.5 -57.5t-57 -91.5t-22 -123q0 -60 20 -113.5t54.5 -93t79 -63
t94.5 -23.5q40 0 83.5 20.5t79.5 58.5t59.5 92t23.5 122q0 58 -19.5 110.5t-53 93t-78.5 64.5t-95 24zM449 272q-3 -30 -15 -54.5t-30 -42.5t-41 -27.5t-49 -9.5q-37 0 -67.5 15.5t-52 42.5t-33.5 63t-12 78t11.5 78.5t32.5 62.5t51 41t68 15q54 0 91.5 -34t45.5 -95h-50
q-6 40 -28.5 59.5t-57.5 19.5q-59 0 -86.5 -41t-27.5 -105q0 -30 7.5 -57.5t21.5 -48t35.5 -32.5t50.5 -12q35 0 57.5 21t27.5 63h50z" />
    <glyph glyph-name="ordfeminine" unicode="&#xaa;" 
d="M249 428l-32 -90l-63 20l111 309h70l111 -309l-63 -20l-32 90h-102zM300 580l-33 -97h66zM140 291h320v-55h-320v55z" />
    <glyph glyph-name="guillemotleft" unicode="&#xab;" 
d="M340 521l-205 -191l205 -192l-47 -50l-254 242l254 240zM564 521l-205 -191l205 -192l-47 -50l-254 242l254 240z" />
    <glyph glyph-name="logicalnot" unicode="&#xac;" 
d="M522 405h-488v44h532v-276h-44v232z" />
    <glyph glyph-name="uni00AD" unicode="&#xad;" 
d="M189 292h222v-63h-222v63z" />
    <glyph glyph-name="registered" unicode="&#xae;" 
d="M301 -9q-63 0 -117.5 26.5t-95.5 73t-64.5 108.5t-23.5 133q0 70 23.5 132t64.5 108.5t95.5 73t117.5 26.5q62 0 116.5 -26.5t95 -73t64 -108.5t23.5 -132q0 -71 -23.5 -133t-64 -108.5t-95 -73t-116.5 -26.5zM301 41q48 0 92.5 21.5t79.5 60t56 92t21 117.5t-22.5 117.5
t-58 92t-80 59.5t-88.5 21q-45 0 -90 -21t-81 -59.5t-58 -92t-22 -117.5q0 -59 20 -112t54 -93t80 -63t97 -23zM450 141h-59l-95 176h-56v-176h-50v381h145q59 0 88.5 -24t29.5 -77q0 -28 -8 -47.5t-22 -31.5t-33 -18t-41 -7zM240 367h91q31 0 51.5 11t20.5 45q0 17 -6 27
t-16.5 15t-24.5 6t-30 1h-86v-105z" />
    <glyph glyph-name="macron" unicode="&#xaf;" 
d="M157 586v60h287v-60h-287z" />
    <glyph glyph-name="degree" unicode="&#xb0;" 
d="M107 549q0 40 15 75t41.5 61.5t61.5 41.5t75 15t75 -15t61.5 -41.5t41.5 -61.5t15 -75t-15 -75t-41.5 -61.5t-61.5 -41.5t-75 -15t-75 15t-61.5 41.5t-41.5 61.5t-15 75zM149 549q0 -31 12 -58.5t32.5 -48t48 -32.5t58.5 -12t58.5 12t48 32.5t32.5 48t12 58.5t-12 58.5
t-32.5 48t-48 32.5t-58.5 12t-58.5 -12t-48 -32.5t-32.5 -48t-12 -58.5z" />
    <glyph glyph-name="plusminus" unicode="&#xb1;" 
d="M566 385h-244v-244h-44v244h-244v44h244v244h44v-244h244v-44zM566 47h-532v44h532v-44z" />
    <glyph glyph-name="uni00B2" unicode="&#xb2;" 
d="M189 374l132 152q11 14 21 26t10 31q0 21 -13 32t-33 11q-31 0 -44.5 -19t-16.5 -46l-57 7q6 51 35.5 79.5t81.5 28.5q21 0 40.5 -5.5t34 -17t23.5 -28.5t9 -40q0 -28 -13.5 -49t-31.5 -41l-100 -113h144v-50h-222v42z" />
    <glyph glyph-name="uni00B3" unicode="&#xb3;" 
d="M408 634l-86 -79q36 -4 64 -27t28 -62q0 -15 -8.5 -39.5t-32.5 -47t-67.5 -37t-113.5 -10.5v50q72 -1 117 18t45 65q0 14 -6.5 23t-17 14t-23 7t-23.5 2q-14 0 -26.5 -2t-26.5 -4v39l92 82h-136v50h221v-42z" />
    <glyph glyph-name="acute" unicode="&#xb4;" 
d="M413 632l-187 -82l-26 44l177 101z" />
    <glyph glyph-name="mu" unicode="&#xb5;" 
d="M402 44q-17 -24 -43.5 -38.5t-56.5 -14.5q-31 0 -57.5 12.5t-45.5 36.5v-251h-67v732h67v-344q0 -38 11.5 -62t27.5 -37.5t32.5 -18.5t26.5 -5q28 0 48 14t33 35t18.5 46.5t5.5 48.5v323h67v-521h-67v44z" />
    <glyph glyph-name="paragraph" unicode="&#xb6;" 
d="M278 289q-45 -3 -85 9t-70 37t-48 62t-18 84q0 15 2.5 35.5t10.5 42t23.5 42.5t42 38t66 27t95.5 10h246v-60h-46v-683h-67v683h-85v-683h-67v356z" />
    <glyph glyph-name="periodcentered" unicode="&#xb7;" 
d="M250 360q0 21 14.5 35.5t35.5 14.5t35.5 -14.5t14.5 -35.5t-14.5 -35.5t-35.5 -14.5t-35.5 14.5t-14.5 35.5z" />
    <glyph glyph-name="cedilla" unicode="&#xb8;" 
d="M328 -42q32 -2 56 -19t24 -52q0 -18 -8.5 -32.5t-22 -24t-30 -15t-32.5 -5.5q-26 0 -52.5 9t-49.5 20l20 51q17 -8 35.5 -14t38.5 -6q10 0 20.5 4t10.5 16t-10.5 18.5t-24.5 9t-28.5 3t-21.5 1.5l33 91h60z" />
    <glyph glyph-name="uni00B9" unicode="&#xb9;" 
d="M281 609l-62 -21l-18 45l140 47v-298h58v-50h-192v50h74v227z" />
    <glyph glyph-name="ordmasculine" unicode="&#xba;" 
d="M140 291h320v-55h-320v55zM300 676q35 0 60 -14t40.5 -37.5t22.5 -53t7 -60.5t-7 -60.5t-22.5 -52.5t-40.5 -37t-60 -14t-59.5 14t-40 37t-22.5 52.5t-7 60.5t7 60.5t22.5 53t40 37.5t59.5 14zM300 621q-21 0 -33 -11.5t-18.5 -28t-8.5 -35.5t-2 -35t2 -35t8.5 -35.5
t18.5 -27.5t33 -11t33 11t19 27.5t9 35.5t2 35t-2 35.5t-9 36t-19 27.5t-33 11z" />
    <glyph glyph-name="guillemotright" unicode="&#xbb;" 
d="M337 330l-254 -242l-47 50l205 192l-205 191l47 49zM561 330l-254 -242l-47 50l205 192l-205 191l47 49z" />
    <glyph glyph-name="onequarter" unicode="&#xbc;" 
d="M333 78l58 267l57 -10l-46 -207h74v162h60v-162h28v-50h-28v-78h-60v78h-143zM116 609l-62 -21l-18 45l140 47v-298h58v-50h-192v50h74v227zM513 651l-377 -664l-53 26l377 667z" />
    <glyph glyph-name="onehalf" unicode="&#xbd;" 
d="M123 609l-62 -21l-18 45l140 47v-298h58v-50h-192v50h74v227zM517 651l-377 -664l-53 26l377 667zM334 42l132 152q11 14 21 26t10 31q0 21 -13 32t-33 11q-31 0 -44.5 -19t-16.5 -46l-57 7q6 51 35.5 79.5t81.5 28.5q21 0 40.5 -5.5t34 -17t23.5 -28.5t9 -40
q0 -28 -13.5 -49t-31.5 -41l-100 -113h144v-50h-222v42z" />
    <glyph glyph-name="threequarters" unicode="&#xbe;" 
d="M334 78l58 267l57 -10l-46 -207h74v162h60v-162h28v-50h-28v-78h-60v78h-143zM514 651l-377 -664l-53 26l377 667zM257 634l-86 -79q36 -4 64 -27t28 -62q0 -15 -8.5 -39.5t-32.5 -46.5t-67.5 -36.5t-113.5 -10.5v50q72 -1 117 17.5t45 64.5q0 14 -6.5 23t-17 14t-23 7
t-23.5 2q-14 0 -26.5 -2t-26.5 -4v39l92 82h-136v50h221v-42z" />
    <glyph glyph-name="questiondown" unicode="&#xbf;" 
d="M338 447v-17q0 -27 -2 -44.5t-8.5 -32t-19 -28t-33.5 -31.5q-16 -14 -31.5 -27.5t-28 -29t-20 -34t-7.5 -41.5q0 -47 26 -77.5t75 -30.5q30 0 52 12t37 31.5t24 44t14 50.5l66 -17q-8 -40 -22 -74t-37 -58.5t-55.5 -38t-76.5 -13.5q-39 0 -70.5 12t-54.5 33.5t-35.5 53
t-12.5 70.5q0 29 7.5 52.5t21 44t31.5 38.5t39 36q15 13 25 22.5t16 20t8.5 24t2.5 35.5v14h69zM257 667h92v-148h-92v148z" />
    <glyph glyph-name="Agrave" unicode="&#xc0;" 
d="M209 206l-52 -219l-66 18l169 662h80l169 -662l-66 -18l-52 219h-182zM301 578h-2l-74 -312h150zM413 740l-26 -44l-187 82l36 63z" />
    <glyph glyph-name="Aacute" unicode="&#xc1;" 
d="M209 206l-52 -219l-66 18l169 662h80l169 -662l-66 -18l-52 219h-182zM301 578h-2l-74 -312h150zM413 778l-187 -82l-26 44l177 101z" />
    <glyph glyph-name="Acircumflex" unicode="&#xc2;" 
d="M209 206l-52 -219l-66 18l169 662h80l169 -662l-66 -18l-52 219h-182zM301 578h-2l-74 -312h150zM173 697l-24 36l151 102l151 -102l-23 -36l-128 62z" />
    <glyph glyph-name="Atilde" unicode="&#xc3;" 
d="M209 206l-52 -219l-66 18l169 662h80l169 -662l-66 -18l-52 219h-182zM301 578h-2l-74 -312h150zM454 810q-5 -17 -11.5 -35.5t-16.5 -34t-25 -25.5t-37 -10q-23 0 -39 8.5t-33 22.5q-8 7 -22.5 16.5t-26.5 9.5q-11 0 -19 -6.5t-13 -16t-9 -20.5t-7 -19l-49 19
q6 17 14 35.5t19 33.5t26.5 24.5t37.5 9.5q20 0 35.5 -9.5t30.5 -20.5q11 -8 24.5 -18t27.5 -10q10 0 17.5 7t12 16.5t7.5 20t5 18.5z" />
    <glyph glyph-name="Adieresis" unicode="&#xc4;" 
d="M209 206l-52 -219l-66 18l169 662h80l169 -662l-66 -18l-52 219h-182zM301 578h-2l-74 -312h150zM208 826q25 0 36.5 -21t11.5 -42t-11.5 -42t-36.5 -21t-36.5 21t-11.5 42q0 22 11.5 42.5t36.5 20.5zM392 826q25 0 36.5 -21t11.5 -42t-11.5 -42t-36.5 -21t-36.5 21
t-11.5 42q0 22 11.5 42.5t36.5 20.5z" />
    <glyph glyph-name="Aring" unicode="&#xc5;" 
d="M209 206l-52 -219l-66 18l169 662h80l169 -662l-66 -18l-52 219h-182zM301 578h-2l-74 -312h150zM300 847q18 0 34 -7t27.5 -18.5t18.5 -27t7 -33.5q0 -36 -25.5 -61.5t-61.5 -25.5t-61.5 25.5t-25.5 61.5q0 18 7 33.5t18.5 27t27.5 18.5t34 7zM300 807
q-20 0 -33.5 -13.5t-13.5 -32.5q0 -20 13.5 -33.5t33.5 -13.5t33.5 13.5t13.5 33.5q0 19 -13.5 32.5t-33.5 13.5z" />
    <glyph glyph-name="AE" unicode="&#xc6;" 
d="M284 607h-27l-80 -341h107v341zM284 206h-120l-53 -219l-68 18l168 662h297v-60h-157v-220h145v-60h-145v-267h157v-60h-224v206z" />
    <glyph glyph-name="Ccedilla" unicode="&#xc7;" 
d="M487 100q-26 -42 -63 -71t-85 -36l-11 -35q32 -2 56 -19t24 -52q0 -18 -8.5 -32.5t-22 -24t-30 -15t-32.5 -5.5q-26 0 -52.5 9t-49.5 20l20 51q17 -8 35.5 -14t38.5 -6q10 0 20.5 4t10.5 16t-10.5 18.5t-24.5 9t-28.5 3t-21.5 1.5l26 72q-54 10 -86.5 47t-50 86.5
t-23 104.5t-5.5 101q0 33 2.5 71.5t10.5 76.5t22 73.5t36 62.5t53.5 43t75.5 16q57 0 97 -30t66 -78l-57 -34q-16 32 -42 55.5t-64 23.5q-31 0 -52 -14.5t-35.5 -38.5t-23 -54t-13 -61t-5.5 -60.5t-1 -51.5t1 -51t5.5 -60t13 -61t23 -54t35.5 -38.5t52 -14.5q19 0 36.5 7.5
t32.5 19.5t27.5 27t21.5 30z" />
    <glyph glyph-name="Egrave" unicode="&#xc8;" 
d="M157 667h325v-60h-258v-220h213v-60h-213v-267h258v-60h-325v667zM413 740l-26 -44l-187 82l36 63z" />
    <glyph glyph-name="Eacute" unicode="&#xc9;" 
d="M157 667h325v-60h-258v-220h213v-60h-213v-267h258v-60h-325v667zM413 778l-187 -82l-26 44l177 101z" />
    <glyph glyph-name="Ecircumflex" unicode="&#xca;" 
d="M157 667h325v-60h-258v-220h213v-60h-213v-267h258v-60h-325v667zM173 697l-24 36l151 102l151 -102l-23 -36l-128 62z" />
    <glyph glyph-name="Edieresis" unicode="&#xcb;" 
d="M157 667h325v-60h-258v-220h213v-60h-213v-267h258v-60h-325v667zM208 826q25 0 36.5 -21t11.5 -42t-11.5 -42t-36.5 -21t-36.5 21t-11.5 42q0 22 11.5 42.5t36.5 20.5zM392 826q25 0 36.5 -21t11.5 -42t-11.5 -42t-36.5 -21t-36.5 21t-11.5 42q0 22 11.5 42.5t36.5 20.5
z" />
    <glyph glyph-name="Igrave" unicode="&#xcc;" 
d="M266 607h-90v60h248v-60h-91v-547h91v-60h-248v60h90v547zM413 740l-26 -44l-187 82l36 63z" />
    <glyph glyph-name="Iacute" unicode="&#xcd;" 
d="M266 607h-90v60h248v-60h-91v-547h91v-60h-248v60h90v547zM413 778l-187 -82l-26 44l177 101z" />
    <glyph glyph-name="Icircumflex" unicode="&#xce;" 
d="M266 607h-90v60h248v-60h-91v-547h91v-60h-248v60h90v547zM173 697l-24 36l151 102l151 -102l-23 -36l-128 62z" />
    <glyph glyph-name="Idieresis" unicode="&#xcf;" 
d="M266 607h-90v60h248v-60h-91v-547h91v-60h-248v60h90v547zM208 826q25 0 36.5 -21t11.5 -42t-11.5 -42t-36.5 -21t-36.5 21t-11.5 42q0 22 11.5 42.5t36.5 20.5zM392 826q25 0 36.5 -21t11.5 -42t-11.5 -42t-36.5 -21t-36.5 21t-11.5 42q0 22 11.5 42.5t36.5 20.5z" />
    <glyph glyph-name="Eth" unicode="&#xd0;" 
d="M119 607v60h176q50 0 89.5 -13.5t67 -50.5t42 -102t14.5 -168q0 -55 -4.5 -114t-25 -107.5t-63 -80t-118.5 -31.5h-178v60h54v243h-54v60h54v244h-54zM240 363h79v-60h-79v-243h55q30 0 56.5 7t45.5 35t30 82t11 149t-11.5 150t-30 82.5t-41 34.5t-44.5 7h-71v-244z" />
    <glyph glyph-name="Ntilde" unicode="&#xd1;" 
d="M126 667h84l198 -561l2 2l-3 149v410h67v-667h-84l-198 562l-2 -2l3 -151v-409h-67v667zM454 810q-5 -17 -11.5 -35.5t-16.5 -34t-25 -25.5t-37 -10q-23 0 -39 8.5t-33 22.5q-8 7 -22.5 16.5t-26.5 9.5q-11 0 -19 -6.5t-13 -16t-9 -20.5t-7 -19l-49 19q6 17 14 35.5
t19 33.5t26.5 24.5t37.5 9.5q20 0 35.5 -9.5t30.5 -20.5q11 -8 24.5 -18t27.5 -10q10 0 17.5 7t12 16.5t7.5 20t5 18.5z" />
    <glyph glyph-name="Ograve" unicode="&#xd2;" 
d="M300 676q47 0 79 -19t52.5 -50t31.5 -69t16 -76t5.5 -72t0.5 -56q0 -21 -0.5 -54.5t-5.5 -71.5t-16 -77t-31.5 -70t-52.5 -50.5t-79 -19.5q-48 0 -80 19.5t-52.5 50.5t-31.5 69.5t-15.5 76.5t-5 71.5t-0.5 55.5q0 28 1.5 64t7 74t17 74.5t32 65.5t51.5 46.5t76 17.5z
M300 613q-30 0 -49.5 -14t-32.5 -36.5t-19.5 -52t-9.5 -60.5t-3.5 -61.5t-0.5 -54.5q0 -68 4.5 -120t17.5 -87.5t35.5 -54t57.5 -18.5q43 0 66.5 27.5t34.5 69t12.5 90.5t1.5 93q0 47 -1.5 96.5t-12 90t-34 66.5t-67.5 26zM413 740l-26 -44l-187 82l36 63z" />
    <glyph glyph-name="Oacute" unicode="&#xd3;" 
d="M300 676q47 0 79 -19t52.5 -50t31.5 -69t16 -76t5.5 -72t0.5 -56q0 -21 -0.5 -54.5t-5.5 -71.5t-16 -77t-31.5 -70t-52.5 -50.5t-79 -19.5q-48 0 -80 19.5t-52.5 50.5t-31.5 69.5t-15.5 76.5t-5 71.5t-0.5 55.5q0 28 1.5 64t7 74t17 74.5t32 65.5t51.5 46.5t76 17.5z
M300 613q-30 0 -49.5 -14t-32.5 -36.5t-19.5 -52t-9.5 -60.5t-3.5 -61.5t-0.5 -54.5q0 -68 4.5 -120t17.5 -87.5t35.5 -54t57.5 -18.5q43 0 66.5 27.5t34.5 69t12.5 90.5t1.5 93q0 47 -1.5 96.5t-12 90t-34 66.5t-67.5 26zM413 778l-187 -82l-26 44l177 101z" />
    <glyph glyph-name="Ocircumflex" unicode="&#xd4;" 
d="M300 676q47 0 79 -19t52.5 -50t31.5 -69t16 -76t5.5 -72t0.5 -56q0 -21 -0.5 -54.5t-5.5 -71.5t-16 -77t-31.5 -70t-52.5 -50.5t-79 -19.5q-48 0 -80 19.5t-52.5 50.5t-31.5 69.5t-15.5 76.5t-5 71.5t-0.5 55.5q0 28 1.5 64t7 74t17 74.5t32 65.5t51.5 46.5t76 17.5z
M300 613q-30 0 -49.5 -14t-32.5 -36.5t-19.5 -52t-9.5 -60.5t-3.5 -61.5t-0.5 -54.5q0 -68 4.5 -120t17.5 -87.5t35.5 -54t57.5 -18.5q43 0 66.5 27.5t34.5 69t12.5 90.5t1.5 93q0 47 -1.5 96.5t-12 90t-34 66.5t-67.5 26zM173 697l-24 36l151 102l151 -102l-23 -36l-128 62
z" />
    <glyph glyph-name="Otilde" unicode="&#xd5;" 
d="M300 676q47 0 79 -19t52.5 -50t31.5 -69t16 -76t5.5 -72t0.5 -56q0 -21 -0.5 -54.5t-5.5 -71.5t-16 -77t-31.5 -70t-52.5 -50.5t-79 -19.5q-48 0 -80 19.5t-52.5 50.5t-31.5 69.5t-15.5 76.5t-5 71.5t-0.5 55.5q0 28 1.5 64t7 74t17 74.5t32 65.5t51.5 46.5t76 17.5z
M300 613q-30 0 -49.5 -14t-32.5 -36.5t-19.5 -52t-9.5 -60.5t-3.5 -61.5t-0.5 -54.5q0 -68 4.5 -120t17.5 -87.5t35.5 -54t57.5 -18.5q43 0 66.5 27.5t34.5 69t12.5 90.5t1.5 93q0 47 -1.5 96.5t-12 90t-34 66.5t-67.5 26zM454 810q-5 -17 -11.5 -35.5t-16.5 -34t-25 -25.5
t-37 -10q-23 0 -39 8.5t-33 22.5q-8 7 -22.5 16.5t-26.5 9.5q-11 0 -19 -6.5t-13 -16t-9 -20.5t-7 -19l-49 19q6 17 14 35.5t19 33.5t26.5 24.5t37.5 9.5q20 0 35.5 -9.5t30.5 -20.5q11 -8 24.5 -18t27.5 -10q10 0 17.5 7t12 16.5t7.5 20t5 18.5z" />
    <glyph glyph-name="Odieresis" unicode="&#xd6;" 
d="M300 676q47 0 79 -19t52.5 -50t31.5 -69t16 -76t5.5 -72t0.5 -56q0 -21 -0.5 -54.5t-5.5 -71.5t-16 -77t-31.5 -70t-52.5 -50.5t-79 -19.5q-48 0 -80 19.5t-52.5 50.5t-31.5 69.5t-15.5 76.5t-5 71.5t-0.5 55.5q0 28 1.5 64t7 74t17 74.5t32 65.5t51.5 46.5t76 17.5z
M300 613q-30 0 -49.5 -14t-32.5 -36.5t-19.5 -52t-9.5 -60.5t-3.5 -61.5t-0.5 -54.5q0 -68 4.5 -120t17.5 -87.5t35.5 -54t57.5 -18.5q43 0 66.5 27.5t34.5 69t12.5 90.5t1.5 93q0 47 -1.5 96.5t-12 90t-34 66.5t-67.5 26zM208 826q25 0 36.5 -21t11.5 -42t-11.5 -42
t-36.5 -21t-36.5 21t-11.5 42q0 22 11.5 42.5t36.5 20.5zM392 826q25 0 36.5 -21t11.5 -42t-11.5 -42t-36.5 -21t-36.5 21t-11.5 42q0 22 11.5 42.5t36.5 20.5z" />
    <glyph glyph-name="multiply" unicode="&#xd7;" 
d="M535 94l-235 235l-235 -235l-31 32l235 234l-235 235l31 31l235 -235l235 235l31 -31l-235 -235l235 -234z" />
    <glyph glyph-name="Oslash" unicode="&#xd8;" 
d="M390 565q-28 48 -83 48q-22 0 -42.5 -8t-36.5 -36t-26 -80.5t-10 -142.5v-66.5t5 -67.5zM215 124v-2q13 -31 35 -49.5t57 -18.5q17 0 37 6t37.5 32t29 80t11.5 150q0 41 -1.5 81t-6.5 82v2h-2zM145 -3l-51 26l52 97q-15 51 -19.5 105.5t-4.5 108.5q0 23 0.5 57.5
t5.5 72.5t15.5 75.5t31.5 68t53 49.5t79 19q33 0 63 -13.5t53 -36.5l32 58l52 -27l-48 -88q22 -55 27.5 -115t5.5 -120q0 -29 -1.5 -65.5t-7 -75t-17.5 -74.5t-32.5 -64.5t-51.5 -46t-75 -17.5q-37 0 -72 18t-57 47z" />
    <glyph glyph-name="Ugrave" unicode="&#xd9;" 
d="M204 667v-485q0 -25 3.5 -48t13.5 -41t29 -28.5t50 -10.5t50 11t29.5 29t14 41t3.5 47v485h67v-505q0 -39 -11.5 -70.5t-33 -54t-52 -34.5t-67.5 -12q-38 0 -68 12.5t-51 34.5t-32.5 53t-11.5 68v508h67zM413 740l-26 -44l-187 82l36 63z" />
    <glyph glyph-name="Uacute" unicode="&#xda;" 
d="M204 667v-485q0 -25 3.5 -48t13.5 -41t29 -28.5t50 -10.5t50 11t29.5 29t14 41t3.5 47v485h67v-505q0 -39 -11.5 -70.5t-33 -54t-52 -34.5t-67.5 -12q-38 0 -68 12.5t-51 34.5t-32.5 53t-11.5 68v508h67zM413 778l-187 -82l-26 44l177 101z" />
    <glyph glyph-name="Ucircumflex" unicode="&#xdb;" 
d="M204 667v-485q0 -25 3.5 -48t13.5 -41t29 -28.5t50 -10.5t50 11t29.5 29t14 41t3.5 47v485h67v-505q0 -39 -11.5 -70.5t-33 -54t-52 -34.5t-67.5 -12q-38 0 -68 12.5t-51 34.5t-32.5 53t-11.5 68v508h67zM173 697l-24 36l151 102l151 -102l-23 -36l-128 62z" />
    <glyph glyph-name="Udieresis" unicode="&#xdc;" 
d="M204 667v-485q0 -25 3.5 -48t13.5 -41t29 -28.5t50 -10.5t50 11t29.5 29t14 41t3.5 47v485h67v-505q0 -39 -11.5 -70.5t-33 -54t-52 -34.5t-67.5 -12q-38 0 -68 12.5t-51 34.5t-32.5 53t-11.5 68v508h67zM208 826q25 0 36.5 -21t11.5 -42t-11.5 -42t-36.5 -21t-36.5 21
t-11.5 42q0 22 11.5 42.5t36.5 20.5zM392 826q25 0 36.5 -21t11.5 -42t-11.5 -42t-36.5 -21t-36.5 21t-11.5 42q0 22 11.5 42.5t36.5 20.5z" />
    <glyph glyph-name="Yacute" unicode="&#xdd;" 
d="M444 680l62 -25l-173 -392v-263h-67v263l-172 392l62 25l144 -339zM413 778l-187 -82l-26 44l177 101z" />
    <glyph glyph-name="Thorn" unicode="&#xde;" 
d="M229 0h-67v667h67v-148h78q89 0 136.5 -45.5t47.5 -131.5q0 -47 -12.5 -82.5t-34 -60.5t-51.5 -37.5t-64 -12.5h-100v-149zM229 209h94q47 0 72.5 35t25.5 98q0 62 -30.5 89.5t-84.5 27.5h-77v-250z" />
    <glyph glyph-name="germandbls" unicode="&#xdf;" 
d="M277 308q33 5 49 30t16 57q0 33 -14.5 52.5t-49.5 19.5q-23 0 -36 -8t-19.5 -21t-8 -30.5t-1.5 -35.5v-372h-67v419q0 15 8 34t25 36.5t43.5 29t62.5 11.5q58 0 92.5 -35.5t34.5 -92.5q0 -32 -13 -63t-42 -48q48 -13 72.5 -53t24.5 -87q0 -42 -13 -70.5t-32.5 -46.5
t-43.5 -26t-46 -8h-61v60h46q80 0 80 88q0 52 -27.5 77t-79.5 23v60z" />
    <glyph glyph-name="agrave" unicode="&#xe0;" 
d="M208 142l-49 -155l-66 24l164 510h86l164 -510l-66 -24l-48 155h-185zM300 443l-74 -241h148zM413 594l-26 -44l-187 82l36 63z" />
    <glyph glyph-name="aacute" unicode="&#xe1;" 
d="M208 142l-49 -155l-66 24l164 510h86l164 -510l-66 -24l-48 155h-185zM300 443l-74 -241h148zM413 632l-187 -82l-26 44l177 101z" />
    <glyph glyph-name="acircumflex" unicode="&#xe2;" 
d="M208 142l-49 -155l-66 24l164 510h86l164 -510l-66 -24l-48 155h-185zM300 443l-74 -241h148zM173 551l-24 36l151 102l151 -102l-23 -36l-128 62z" />
    <glyph glyph-name="atilde" unicode="&#xe3;" 
d="M208 142l-49 -155l-66 24l164 510h86l164 -510l-66 -24l-48 155h-185zM300 443l-74 -241h148zM454 664q-5 -17 -11.5 -35.5t-16.5 -34t-25 -25.5t-37 -10q-23 0 -39 8.5t-33 22.5q-8 7 -22.5 16.5t-26.5 9.5q-11 0 -19 -6.5t-13 -16t-9 -20.5t-7 -19l-49 19q6 17 14 35.5
t19 33.5t26.5 24.5t37.5 9.5q20 0 35.5 -9.5t30.5 -20.5q11 -8 24.5 -18t27.5 -10q10 0 17.5 7t12 16.5t7.5 20t5 18.5z" />
    <glyph glyph-name="adieresis" unicode="&#xe4;" 
d="M208 142l-49 -155l-66 24l164 510h86l164 -510l-66 -24l-48 155h-185zM300 443l-74 -241h148zM208 680q25 0 36.5 -21t11.5 -42t-11.5 -42t-36.5 -21t-36.5 21t-11.5 42q0 22 11.5 42.5t36.5 20.5zM392 680q25 0 36.5 -21t11.5 -42t-11.5 -42t-36.5 -21t-36.5 21
t-11.5 42q0 22 11.5 42.5t36.5 20.5z" />
    <glyph glyph-name="aring" unicode="&#xe5;" 
d="M208 142l-49 -155l-66 24l164 510h86l164 -510l-66 -24l-48 155h-185zM300 443l-74 -241h148zM300 701q18 0 34 -7t27.5 -18.5t18.5 -27t7 -33.5q0 -36 -25.5 -61.5t-61.5 -25.5t-61.5 25.5t-25.5 61.5q0 18 7 33.5t18.5 27t27.5 18.5t34 7zM300 661q-20 0 -33.5 -13.5
t-13.5 -32.5q0 -20 13.5 -33.5t33.5 -13.5t33.5 13.5t13.5 33.5q0 19 -13.5 32.5t-33.5 13.5z" />
    <glyph glyph-name="ae" unicode="&#xe6;" 
d="M291 461h-42l-76 -259h118v259zM291 142h-137l-48 -155l-66 24l164 510h332v-60h-178v-156h145v-60h-145v-185h178v-60h-245v142z" />
    <glyph glyph-name="ccedilla" unicode="&#xe7;" 
d="M487 100q-28 -45 -62.5 -73t-85.5 -35l-11 -34q32 -2 56 -19t24 -52q0 -18 -8.5 -32.5t-22 -24t-30 -15t-32.5 -5.5q-26 0 -52.5 9t-49.5 20l20 51q17 -8 35.5 -14t38.5 -6q10 0 20.5 4t10.5 16t-10.5 18.5t-24.5 9t-28.5 3t-21.5 1.5l26 72q-47 7 -78.5 33t-50.5 63
t-27.5 81t-8.5 89q0 78 18.5 130t47 83t62.5 44t66 13q61 0 99 -29.5t66 -81.5l-61 -31q-17 32 -41 55.5t-62 23.5q-39 0 -63.5 -21t-38 -52t-18.5 -67t-5 -66t4.5 -66.5t18 -67.5t38 -52t64.5 -21q23 0 40.5 6.5t32 18t26.5 26.5t24 33z" />
    <glyph glyph-name="egrave" unicode="&#xe8;" 
d="M157 521h325v-60h-258v-156h213v-60h-213v-185h258v-60h-325v521zM413 594l-26 -44l-187 82l36 63z" />
    <glyph glyph-name="eacute" unicode="&#xe9;" 
d="M157 521h325v-60h-258v-156h213v-60h-213v-185h258v-60h-325v521zM413 632l-187 -82l-26 44l177 101z" />
    <glyph glyph-name="ecircumflex" unicode="&#xea;" 
d="M157 521h325v-60h-258v-156h213v-60h-213v-185h258v-60h-325v521zM173 551l-24 36l151 102l151 -102l-23 -36l-128 62z" />
    <glyph glyph-name="edieresis" unicode="&#xeb;" 
d="M157 521h325v-60h-258v-156h213v-60h-213v-185h258v-60h-325v521zM208 680q25 0 36.5 -21t11.5 -42t-11.5 -42t-36.5 -21t-36.5 21t-11.5 42q0 22 11.5 42.5t36.5 20.5zM392 680q25 0 36.5 -21t11.5 -42t-11.5 -42t-36.5 -21t-36.5 21t-11.5 42q0 22 11.5 42.5t36.5 20.5
z" />
    <glyph glyph-name="igrave" unicode="&#xec;" 
d="M193 60h73v401h-73v60h214v-60h-74v-401h74v-60h-214v60zM413 594l-26 -44l-187 82l36 63z" />
    <glyph glyph-name="iacute" unicode="&#xed;" 
d="M193 60h73v401h-73v60h214v-60h-74v-401h74v-60h-214v60zM413 632l-187 -82l-26 44l177 101z" />
    <glyph glyph-name="icircumflex" unicode="&#xee;" 
d="M193 60h73v401h-73v60h214v-60h-74v-401h74v-60h-214v60zM173 551l-24 36l151 102l151 -102l-23 -36l-128 62z" />
    <glyph glyph-name="idieresis" unicode="&#xef;" 
d="M193 60h73v401h-73v60h214v-60h-74v-401h74v-60h-214v60zM208 680q25 0 36.5 -21t11.5 -42t-11.5 -42t-36.5 -21t-36.5 21t-11.5 42q0 22 11.5 42.5t36.5 20.5zM392 680q25 0 36.5 -21t11.5 -42t-11.5 -42t-36.5 -21t-36.5 21t-11.5 42q0 22 11.5 42.5t36.5 20.5z" />
    <glyph glyph-name="eth" unicode="&#xf0;" 
d="M173 461h-54v60h174q55 0 96 -12.5t67 -42t39 -78.5t13 -121q0 -61 -7.5 -110.5t-30 -84t-65 -53.5t-112.5 -19h-174v60h54v170h-54v60h54v171zM319 290v-60h-79v-170h71q33 0 57 10t39.5 33.5t23 62t7.5 94.5q0 60 -8.5 99t-25 61.5t-40.5 31.5t-55 9h-69v-171h79z" />
    <glyph glyph-name="ntilde" unicode="&#xf1;" 
d="M126 521h83l202 -439l2 2l-6 135v302h67v-521h-83l-202 439l-2 -2l6 -136v-301h-67v521zM454 664q-5 -17 -11.5 -35.5t-16.5 -34t-25 -25.5t-37 -10q-23 0 -39 8.5t-33 22.5q-8 7 -22.5 16.5t-26.5 9.5q-11 0 -19 -6.5t-13 -16t-9 -20.5t-7 -19l-49 19q6 17 14 35.5
t19 33.5t26.5 24.5t37.5 9.5q20 0 35.5 -9.5t30.5 -20.5q11 -8 24.5 -18t27.5 -10q10 0 17.5 7t12 16.5t7.5 20t5 18.5z" />
    <glyph glyph-name="ograve" unicode="&#xf2;" 
d="M300 530q31 0 64 -12.5t60 -43.5t44 -83t17 -131q0 -11 -1 -35t-6.5 -53.5t-17 -61.5t-32 -58.5t-52 -43.5t-76.5 -17q-32 0 -64.5 12.5t-59.5 43.5t-44 83t-17 130t17 130t43.5 83t59.5 44t65 13zM300 467q-38 0 -60.5 -21.5t-34.5 -53t-16 -67.5t-4 -65t4 -64.5t16 -67
t34.5 -53t60.5 -21.5t60.5 21.5t34.5 53t16 67t4 64.5t-4 65t-16 67.5t-34.5 53t-60.5 21.5zM413 594l-26 -44l-187 82l36 63z" />
    <glyph glyph-name="oacute" unicode="&#xf3;" 
d="M300 530q31 0 64 -12.5t60 -43.5t44 -83t17 -131q0 -11 -1 -35t-6.5 -53.5t-17 -61.5t-32 -58.5t-52 -43.5t-76.5 -17q-32 0 -64.5 12.5t-59.5 43.5t-44 83t-17 130t17 130t43.5 83t59.5 44t65 13zM300 467q-38 0 -60.5 -21.5t-34.5 -53t-16 -67.5t-4 -65t4 -64.5t16 -67
t34.5 -53t60.5 -21.5t60.5 21.5t34.5 53t16 67t4 64.5t-4 65t-16 67.5t-34.5 53t-60.5 21.5zM413 632l-187 -82l-26 44l177 101z" />
    <glyph glyph-name="ocircumflex" unicode="&#xf4;" 
d="M300 530q31 0 64 -12.5t60 -43.5t44 -83t17 -131q0 -11 -1 -35t-6.5 -53.5t-17 -61.5t-32 -58.5t-52 -43.5t-76.5 -17q-32 0 -64.5 12.5t-59.5 43.5t-44 83t-17 130t17 130t43.5 83t59.5 44t65 13zM300 467q-38 0 -60.5 -21.5t-34.5 -53t-16 -67.5t-4 -65t4 -64.5t16 -67
t34.5 -53t60.5 -21.5t60.5 21.5t34.5 53t16 67t4 64.5t-4 65t-16 67.5t-34.5 53t-60.5 21.5zM173 551l-24 36l151 102l151 -102l-23 -36l-128 62z" />
    <glyph glyph-name="otilde" unicode="&#xf5;" 
d="M300 530q31 0 64 -12.5t60 -43.5t44 -83t17 -131q0 -11 -1 -35t-6.5 -53.5t-17 -61.5t-32 -58.5t-52 -43.5t-76.5 -17q-32 0 -64.5 12.5t-59.5 43.5t-44 83t-17 130t17 130t43.5 83t59.5 44t65 13zM300 467q-38 0 -60.5 -21.5t-34.5 -53t-16 -67.5t-4 -65t4 -64.5t16 -67
t34.5 -53t60.5 -21.5t60.5 21.5t34.5 53t16 67t4 64.5t-4 65t-16 67.5t-34.5 53t-60.5 21.5zM454 664q-5 -17 -11.5 -35.5t-16.5 -34t-25 -25.5t-37 -10q-23 0 -39 8.5t-33 22.5q-8 7 -22.5 16.5t-26.5 9.5q-11 0 -19 -6.5t-13 -16t-9 -20.5t-7 -19l-49 19q6 17 14 35.5
t19 33.5t26.5 24.5t37.5 9.5q20 0 35.5 -9.5t30.5 -20.5q11 -8 24.5 -18t27.5 -10q10 0 17.5 7t12 16.5t7.5 20t5 18.5z" />
    <glyph glyph-name="odieresis" unicode="&#xf6;" 
d="M300 530q31 0 64 -12.5t60 -43.5t44 -83t17 -131q0 -11 -1 -35t-6.5 -53.5t-17 -61.5t-32 -58.5t-52 -43.5t-76.5 -17q-32 0 -64.5 12.5t-59.5 43.5t-44 83t-17 130t17 130t43.5 83t59.5 44t65 13zM300 467q-38 0 -60.5 -21.5t-34.5 -53t-16 -67.5t-4 -65t4 -64.5t16 -67
t34.5 -53t60.5 -21.5t60.5 21.5t34.5 53t16 67t4 64.5t-4 65t-16 67.5t-34.5 53t-60.5 21.5zM208 680q25 0 36.5 -21t11.5 -42t-11.5 -42t-36.5 -21t-36.5 21t-11.5 42q0 22 11.5 42.5t36.5 20.5zM392 680q25 0 36.5 -21t11.5 -42t-11.5 -42t-36.5 -21t-36.5 21t-11.5 42
q0 22 11.5 42.5t36.5 20.5z" />
    <glyph glyph-name="divide" unicode="&#xf7;" 
d="M566 338h-532v44h532v-44zM343 205q0 -18 -12.5 -30.5t-30.5 -12.5t-30.5 12.5t-12.5 30.5t12.5 30.5t30.5 12.5t30.5 -12.5t12.5 -30.5zM343 515q0 -18 -12.5 -30.5t-30.5 -12.5t-30.5 12.5t-12.5 30.5t12.5 30.5t30.5 12.5t30.5 -12.5t12.5 -30.5z" />
    <glyph glyph-name="oslash" unicode="&#xf8;" 
d="M365 442q-13 13 -30 19t-35 6q-38 0 -60.5 -21.5t-34.5 -53t-16 -67.5t-4 -65q0 -30 3.5 -60t11.5 -59zM233 80q29 -26 67 -26t60.5 21.5t34.5 53t16 67t4 64.5q0 32 -3.5 63t-12.5 60zM417 538l50 -28l-29 -55q28 -42 37.5 -93t9.5 -102q0 -74 -15.5 -125t-41.5 -83
t-59.5 -46.5t-68.5 -14.5q-26 0 -51.5 7.5t-46.5 24.5l-21 -39l-51 27l31 57q-28 41 -37 92.5t-9 99.5q0 75 15.5 126.5t41.5 83.5t59.5 46t68.5 14q26 0 51 -7.5t45 -22.5z" />
    <glyph glyph-name="ugrave" unicode="&#xf9;" 
d="M204 521v-355q0 -57 19.5 -84.5t71.5 -27.5q31 0 51 7t31.5 21t15.5 35t4 49v355h67v-387q0 -26 -9.5 -51.5t-29.5 -46t-51 -33t-74 -12.5q-42 0 -73 12.5t-51 32.5t-29.5 46.5t-9.5 55.5v383h67zM413 594l-26 -44l-187 82l36 63z" />
    <glyph glyph-name="uacute" unicode="&#xfa;" 
d="M204 521v-355q0 -57 19.5 -84.5t71.5 -27.5q31 0 51 7t31.5 21t15.5 35t4 49v355h67v-387q0 -26 -9.5 -51.5t-29.5 -46t-51 -33t-74 -12.5q-42 0 -73 12.5t-51 32.5t-29.5 46.5t-9.5 55.5v383h67zM413 632l-187 -82l-26 44l177 101z" />
    <glyph glyph-name="ucircumflex" unicode="&#xfb;" 
d="M204 521v-355q0 -57 19.5 -84.5t71.5 -27.5q31 0 51 7t31.5 21t15.5 35t4 49v355h67v-387q0 -26 -9.5 -51.5t-29.5 -46t-51 -33t-74 -12.5q-42 0 -73 12.5t-51 32.5t-29.5 46.5t-9.5 55.5v383h67zM173 551l-24 36l151 102l151 -102l-23 -36l-128 62z" />
    <glyph glyph-name="udieresis" unicode="&#xfc;" 
d="M204 521v-355q0 -57 19.5 -84.5t71.5 -27.5q31 0 51 7t31.5 21t15.5 35t4 49v355h67v-387q0 -26 -9.5 -51.5t-29.5 -46t-51 -33t-74 -12.5q-42 0 -73 12.5t-51 32.5t-29.5 46.5t-9.5 55.5v383h67zM208 680q25 0 36.5 -21t11.5 -42t-11.5 -42t-36.5 -21t-36.5 21t-11.5 42
q0 22 11.5 42.5t36.5 20.5zM392 680q25 0 36.5 -21t11.5 -42t-11.5 -42t-36.5 -21t-36.5 21t-11.5 42q0 22 11.5 42.5t36.5 20.5z" />
    <glyph glyph-name="yacute" unicode="&#xfd;" 
d="M439 534l63 -33l-169 -300v-201h-67v201l-168 300l63 33l139 -268zM413 632l-187 -82l-26 44l177 101z" />
    <glyph glyph-name="thorn" unicode="&#xfe;" 
d="M229 0h-67v521h67v-112h95q45 0 77 -11.5t52.5 -31t29.5 -45.5t9 -54q0 -41 -13.5 -70.5t-35 -48.5t-48.5 -27.5t-54 -8.5h-112v-112zM321 172q101 0 101 90q0 27 -8 43.5t-22 26.5t-32 13.5t-39 3.5h-92v-177h92z" />
    <glyph glyph-name="ydieresis" unicode="&#xff;" 
d="M439 534l63 -33l-169 -300v-201h-67v201l-168 300l63 33l139 -268zM208 680q25 0 36.5 -21t11.5 -42t-11.5 -42t-36.5 -21t-36.5 21t-11.5 42q0 22 11.5 42.5t36.5 20.5zM392 680q25 0 36.5 -21t11.5 -42t-11.5 -42t-36.5 -21t-36.5 21t-11.5 42q0 22 11.5 42.5
t36.5 20.5z" />
    <glyph glyph-name="dotlessi" unicode="&#x131;" 
d="M193 60h73v401h-73v60h214v-60h-74v-401h74v-60h-214v60z" />
    <glyph glyph-name="OE" unicode="&#x152;" 
d="M531 667v-60h-154v-220h142v-60h-142v-267h154v-60h-220q-6 -2 -12 -3.5t-13 -3.5q-6 -1 -12.5 -1.5t-13.5 -0.5q-49 0 -82.5 20.5t-55 52.5t-32.5 71.5t-15.5 78t-5 71t-0.5 50.5q0 19 0.5 52t5.5 71t16 76.5t31.5 70t53 51.5t79.5 20q16 0 31 -1t29 -8h216zM310 597
q-11 10 -25.5 13t-29.5 3q-24 0 -45 -9t-36.5 -38t-25 -84t-9.5 -147q0 -54 3.5 -105t15.5 -90t35 -62.5t62 -23.5q31 0 55 19v524z" />
    <glyph glyph-name="oe" unicode="&#x153;" 
d="M541 521v-60h-178v-156h146v-60h-146v-185h178v-60h-238q-6 -2 -12 -3.5t-13 -3.5q-7 -1 -13.5 -1.5t-13.5 -0.5q-57 0 -93.5 24.5t-58.5 63.5t-30.5 86.5t-8.5 94.5q0 79 17 131t44 83t60 43.5t64 12.5q15 0 29.5 -2t28.5 -7h238zM296 453q-23 14 -51 14
q-38 0 -60.5 -21.5t-34.5 -53t-16 -67.5t-4 -65t4 -64.5t16 -67t34.5 -53t60.5 -21.5q28 0 51 14v385z" />
    <glyph glyph-name="Scaron" unicode="&#x160;" 
d="M396 515q-4 18 -11 36t-18 31.5t-26.5 22t-36.5 8.5q-24 0 -40.5 -9t-27 -23.5t-15.5 -34t-5 -40.5q0 -20 3.5 -34.5t15.5 -29t35 -30.5t62 -40q31 -18 56.5 -36t43.5 -40t28 -50t10 -67t-10.5 -73.5t-31.5 -60t-52.5 -40t-73.5 -14.5q-44 0 -75 14t-51 38.5t-30.5 58
t-14.5 73.5l67 9q3 -28 9 -51.5t17 -41t30.5 -27.5t49.5 -10q44 0 71.5 29.5t27.5 89.5q0 33 -10 56t-27 41t-40 32t-49 29q-29 17 -52.5 32.5t-40.5 35t-26 45t-9 62.5q0 34 11 64.5t31 54t48.5 37.5t64.5 14q35 0 61.5 -12t45.5 -32t31.5 -48t18.5 -59zM300 771l128 62
l23 -36l-151 -102l-151 102l24 36z" />
    <glyph glyph-name="scaron" unicode="&#x161;" 
d="M191 165q10 -48 35.5 -79.5t78.5 -31.5q42 0 70 22t28 66q0 24 -9 40t-24 27t-34 18.5t-38 15.5q-29 12 -55.5 23t-47 27t-33 39.5t-12.5 60.5q0 33 12.5 58.5t33.5 43t48.5 26.5t58.5 9q66 0 104.5 -35t54.5 -96l-64 -19q-9 38 -31 62.5t-65 24.5q-16 0 -31.5 -4
t-27.5 -12.5t-19 -21.5t-7 -31t5.5 -30.5t14.5 -21.5t22 -15.5t28 -13.5l111 -49q72 -40 72 -122q0 -37 -12.5 -66t-34 -48.5t-52 -30t-66.5 -10.5q-73 0 -117.5 42.5t-56.5 112.5zM300 625l128 62l23 -36l-151 -102l-151 102l24 36z" />
    <glyph glyph-name="Ydieresis" unicode="&#x178;" 
d="M444 680l62 -25l-173 -392v-263h-67v263l-172 392l62 25l144 -339zM208 826q25 0 36.5 -21t11.5 -42t-11.5 -42t-36.5 -21t-36.5 21t-11.5 42q0 22 11.5 42.5t36.5 20.5zM392 826q25 0 36.5 -21t11.5 -42t-11.5 -42t-36.5 -21t-36.5 21t-11.5 42q0 22 11.5 42.5
t36.5 20.5z" />
    <glyph glyph-name="Zcaron" unicode="&#x17d;" 
d="M387 607h-254v60h355l-282 -607h290v-60h-392zM300 771l128 62l23 -36l-151 -102l-151 102l24 36z" />
    <glyph glyph-name="zcaron" unicode="&#x17e;" 
d="M377 461h-244v60h355l-271 -461h279v-60h-392zM300 625l128 62l23 -36l-151 -102l-151 102l24 36z" />
    <glyph glyph-name="florin" unicode="&#x192;" 
d="M348 391h96v-60h-103l-35 -292q-1 -9 -4.5 -37t-18 -58.5t-43 -54t-80.5 -23.5h-51v60h43q26 0 42 9.5t25 26t13 38.5t7 48l34 283h-107v60h114l14 112q1 9 4.5 37t18 58.5t43 54t80.5 23.5h51v-60h-43q-26 0 -41.5 -9.5t-24.5 -26t-13.5 -38.5t-7.5 -48z" />
    <glyph glyph-name="circumflex" unicode="&#x2c6;" 
d="M173 551l-24 36l151 102l151 -102l-23 -36l-128 62z" />
    <glyph glyph-name="caron" unicode="&#x2c7;" 
d="M300 625l128 62l23 -36l-151 -102l-151 102l24 36z" />
    <glyph glyph-name="ring" unicode="&#x2da;" 
d="M300 681q18 0 34 -7t27.5 -18.5t18.5 -27t7 -33.5q0 -36 -25.5 -61.5t-61.5 -25.5t-61.5 25.5t-25.5 61.5q0 18 7 33.5t18.5 27t27.5 18.5t34 7zM300 641q-20 0 -33.5 -13.5t-13.5 -32.5q0 -20 13.5 -33.5t33.5 -13.5t33.5 13.5t13.5 33.5q0 19 -13.5 32.5t-33.5 13.5z
" />
    <glyph glyph-name="tilde" unicode="&#x2dc;" 
d="M454 664q-5 -17 -11.5 -35.5t-16.5 -34t-25 -25.5t-37 -10q-23 0 -39 8.5t-33 22.5q-8 7 -22.5 16.5t-26.5 9.5q-11 0 -19 -6.5t-13 -16t-9 -20.5t-7 -19l-49 19q6 17 14 35.5t19 33.5t26.5 24.5t37.5 9.5q20 0 35.5 -9.5t30.5 -20.5q11 -8 24.5 -18t27.5 -10
q10 0 17.5 7t12 16.5t7.5 20t5 18.5z" />
    <glyph glyph-name="endash" unicode="&#x2013;" 
d="M78 292h444v-63h-444v63z" />
    <glyph glyph-name="emdash" unicode="&#x2014;" 
d="M0 292h600v-63h-600v63z" />
    <glyph glyph-name="quoteleft" unicode="&#x2018;" 
d="M216 469v45q0 25 9 49t24 45t35 38.5t43 29.5l23 -55q-26 -17 -34 -41t-8 -50v-61h-92z" />
    <glyph glyph-name="quoteright" unicode="&#x2019;" 
d="M357 667v-45q0 -25 -9 -49t-24 -45t-35 -38.5t-43 -29.5l-23 55q26 17 34 41t8 50v61h92z" />
    <glyph glyph-name="quotesinglbase" unicode="&#x201a;" 
d="M357 148v-45q0 -25 -9 -49t-24 -45t-35 -38.5t-43 -29.5l-23 55q26 17 34 41t8 50v61h92z" />
    <glyph glyph-name="quotedblleft" unicode="&#x201c;" 
d="M329 469v45q0 25 9 49t24 45t35 38.5t43 29.5l23 -55q-26 -17 -34 -41t-8 -50v-61h-92zM143 469v45q0 25 9 49t24 45t35 38.5t43 29.5l23 -55q-26 -17 -34 -41t-8 -50v-61h-92z" />
    <glyph glyph-name="quotedblright" unicode="&#x201d;" 
d="M271 667v-45q0 -25 -9 -49t-24 -45t-35 -38.5t-43 -29.5l-23 55q26 17 34 41t8 50v61h92zM457 667v-45q0 -25 -9 -49t-24 -45t-35 -38.5t-43 -29.5l-23 55q26 17 34 41t8 50v61h92z" />
    <glyph glyph-name="quotedblbase" unicode="&#x201e;" 
d="M271 148v-45q0 -25 -9 -49t-24 -45t-35 -38.5t-43 -29.5l-23 55q26 17 34 41t8 50v61h92zM457 148v-45q0 -25 -9 -49t-24 -45t-35 -38.5t-43 -29.5l-23 55q26 17 34 41t8 50v61h92z" />
    <glyph glyph-name="dagger" unicode="&#x2020;" 
d="M267 423l-118 -6v73l119 -6l-10 183h85l-10 -183l119 6v-73l-118 6l5 -76l-10 -347h-57l-10 347z" />
    <glyph glyph-name="daggerdbl" unicode="&#x2021;" 
d="M146 433v72l119 -6l-6 168h83l-6 -168l119 6v-72l-121 6v-211l121 6v-73l-119 7l6 -168h-83l6 168l-119 -7v73l121 -6v211z" />
    <glyph glyph-name="bullet" unicode="&#x2022;" 
d="M177 252q0 25 10 47.5t26.5 39t39 26.5t47.5 10t47.5 -10t39 -26.5t26.5 -39t10 -47.5q0 -26 -10 -48.5t-26.5 -39t-39 -26t-47.5 -9.5q-26 0 -48.5 9.5t-39 26t-26 39t-9.5 48.5z" />
    <glyph glyph-name="ellipsis" unicode="&#x2026;" 
d="M54 148h92v-148h-92v148zM254 148h92v-148h-92v148zM454 148h92v-148h-92v148z" />
    <glyph glyph-name="perthousand" unicode="&#x2030;" 
d="M320 116q0 10 -1.5 23.5t-6.5 24.5t-13.5 19t-22.5 8t-22.5 -8t-13.5 -19t-6.5 -24.5t-1.5 -23.5q0 -11 1.5 -24t6.5 -24t13.5 -19t22.5 -8t22.5 8t13.5 19t6.5 24t1.5 24zM396 655l-336 -664l-53 32l294 580q-17 -8 -40 -8q-25 0 -47 9q8 -27 8 -53q0 -23 -6 -45.5
t-18 -40.5t-30.5 -29t-43.5 -11q-26 0 -44.5 11t-30.5 29t-17.5 40.5t-5.5 45.5q0 22 5.5 44.5t17.5 40.5t30.5 29t44.5 11t52 -12q20 -10 39 -14.5t42 -4.5q28 0 55.5 7t50.5 24zM374 116q0 -23 -6 -45t-18 -40t-30.5 -29t-43.5 -11q-26 0 -44.5 11t-30.5 29t-17.5 40
t-5.5 45q0 22 5.5 44.5t17.5 40.5t30.5 29t44.5 11q25 0 43.5 -11t30.5 -29t18 -40.5t6 -44.5zM168 551q0 10 -1.5 23.5t-6.5 24.5t-13.5 19t-22.5 8t-22.5 -8t-13.5 -19t-6.5 -24.5t-1.5 -23.5q0 -11 1.5 -24t6.5 -24.5t13.5 -19.5t22.5 -8t22.5 8t13.5 19.5t6.5 24.5
t1.5 24zM593 116q0 -23 -6 -45t-18 -40t-30.5 -29t-43.5 -11q-26 0 -44.5 11t-30.5 29t-17.5 40t-5.5 45q0 22 5.5 44.5t17.5 40.5t30.5 29t44.5 11q25 0 43.5 -11t30.5 -29t18 -40.5t6 -44.5zM539 116q0 10 -1.5 23.5t-6.5 24.5t-13.5 19t-22.5 8t-22.5 -8t-13.5 -19
t-6.5 -24.5t-1.5 -23.5q0 -11 1.5 -24t6.5 -24t13.5 -19t22.5 -8t22.5 8t13.5 19t6.5 24t1.5 24z" />
    <glyph glyph-name="guilsinglleft" unicode="&#x2039;" 
d="M443 521l-205 -191l205 -192l-47 -50l-254 242l254 240z" />
    <glyph glyph-name="guilsinglright" unicode="&#x203a;" 
d="M458 330l-254 -242l-47 50l205 192l-205 191l47 49z" />
    <glyph glyph-name="Euro" unicode="&#x20ac;" 
d="M553 552q-26 25 -69 43t-102 18q-48 0 -85 -15t-62.5 -41t-41 -60.5t-20.5 -72.5h332l-21 -53h-319q-1 -7 -1.5 -16.5t-0.5 -19.5q0 -11 0.5 -20.5t1.5 -17.5h290l-21 -53h-261q14 -90 67 -141t143 -51q58 0 99.5 17.5t70.5 43.5v-71q-21 -18 -67 -34t-111 -16
q-112 0 -181.5 62t-89.5 190h-76l21 53h49q-1 7 -1 18v20v20t1 16h-70l21 53h54q8 51 27.5 97t52.5 80t80.5 54t111.5 20q63 0 109 -16.5t69 -36.5v-70z" />
    <glyph glyph-name="trademark" unicode="&#x2122;" 
d="M581 394h-40v242h-2l-96 -242h-26l-93 242h-2v-242h-40v282h68l81 -199l84 199h66v-282zM248 636h-94v-242h-40v242h-95v40h229v-40z" />
  </font>
</defs>
</svg>
